<svg xmlns="http://www.w3.org/2000/svg" viewBox="0 0 272.95 121.26"><defs><style>.cls-1{fill:#010101;}.cls-2{fill:#1d1d1b;}</style></defs><g id="Layer_2" data-name="Layer 2"><g id="Layer_1-2" data-name="Layer 1"><path class="cls-1" d="M18,93.6c-4.21,0-5.67,3.9-5.67,8.64s1.46,8.63,5.67,8.63,5.62-3.9,5.62-8.63C23.44,96.93,22.3,93.6,18,93.6Z"/><path class="cls-1" d="M102,103.1a8.53,8.53,0,0,0-1.28-2.62A17.05,17.05,0,0,0,98,97.78l6.14-6.07c-.89-1-1.83-2-2.82-2.9-3.94-3.48-10.08-5.44-10.08-5.44h15.3V57.26a10.92,10.92,0,0,0-2.28-7.19c-2.87-3.41-6.32-4-10.13-4-4.54-.08-9.31,2.47-9.31,2.47s-2.23-2.33-7-2.47a18.85,18.85,0,0,0-7.43,1.15H39.87V37.79H23V49.88s-7-12.09-7-12.09H0v82.55H14.74c.27,0,3.57,1.92,9.84.21a12.65,12.65,0,0,0,6-3.94s4.15,4.49,13.13,4.43C50.82,121,53,119,53,119v1.38h16.6v-3.73A27.21,27.21,0,0,0,84.77,121c7.06,0,9.5-2.08,9.5-2.08v1.38h17V103.1ZM61.34,51.41h8.12v2.44c2.07-2.44,5.51-3.17,8-3.17a8.58,8.58,0,0,1,7.33,3.69,11.89,11.89,0,0,1,8.89-3.69c2.71,0,8.53.93,8.53,7.28v21.1H94.1V62.89c0-3.9-1.09-5.67-4.16-5.67-2.7,0-4.11,2-4.11,4.84v17H77.72V61.74c0-2.7-.83-4.52-4-4.52-3.28,0-4.31,2.14-4.31,4.63V79.06H61.34Zm-25.11,0h8.11V69.5c0,2.45.89,3.75,3.95,3.75a4,4,0,0,0,4.32-4.32V51.41h8.11V79.06H52.61V76.62c-2.08,2.44-5.51,3.18-8,3.18-6.55,0-8.37-3.8-8.37-8Zm7.34,59.46c3,0,4.42-1.56,6.76-4.88l6.08,3.17c-2.8,5.2-7.22,7.64-13.41,7.64S32.47,113.65,30.55,109c-1.95,5.49-6.21,7.84-11.28,7.84a9.27,9.27,0,0,1-7.12-3.43h-.1v2.7H4.24V42h9.37L27.08,65.7h.1V42h8.43v37H26.35L12.78,55.76h-.1V90.63A9.94,9.94,0,0,1,20,87.68a11.17,11.17,0,0,1,10.88,7.76c2.05-5,6.28-7.76,12.16-7.76,10.09,0,13.52,7.69,13.57,16.22h-19c.05,5.3,3.43,7,6,7ZM65.3,100.05v16H57.19V88.4H65.3v2.81a12.93,12.93,0,0,1,7.59-2.91l0,7.17-.88.11c-4.84.57-6.76,1.4-6.76,4.47ZM85.15,116.8c-6,0-9.47-1.72-13.52-5.47L76.68,107c2.49,2.39,5,3.9,8.73,3.9,1.35,0,4.42-.32,4.42-2.81,0-4.32-16.38-.88-16.38-10.71,0-7,6.09-9.67,11.7-9.67a22.27,22.27,0,0,1,12.22,4l-5,4.89c-1.62-1.92-5.1-3-7.64-3-2,0-3.49.73-3.49,2.14,0,4.73,16.38.83,16.38,11.18,0,7.27-6.46,9.88-12.49,9.88Zm21.8-.73H98.53v-8.74H107Z"/><path class="cls-1" d="M43,93.6a5.59,5.59,0,0,0-5.51,5.31h11A5.24,5.24,0,0,0,43,93.6Z"/><path class="cls-1" d="M8.41,49.77H7.13V45.83A3.86,3.86,0,0,1,6,46v-.85c.8,0,1.2-.27,1.43-.78h1Z"/><path class="cls-1" d="M42,58.51H38.36v-.95c2-1.62,2.35-2,2.35-2.93,0-.44-.19-.68-.49-.68s-.53.52-.53.84a1.66,1.66,0,0,0,0,.32L38.41,55v-.23A1.73,1.73,0,0,1,40.12,53h.08A1.62,1.62,0,0,1,42,54.62c0,1.18-.51,1.72-2,2.83h2Z"/><path class="cls-1" d="M65.29,55.22h.29a.51.51,0,0,0,.53-.58c0-.33-.08-.64-.52-.64s-.54.4-.56.77l-1.24-.1A1.69,1.69,0,0,1,65.67,53c1,0,1.77.47,1.77,1.5a1.13,1.13,0,0,1-.81,1.14v0a1.24,1.24,0,0,1,1,1.25c0,1.33-1.1,1.7-2.05,1.7-1.37,0-1.89-.67-1.89-1.93L65,56.58a.67.67,0,0,0,0,.28c0,.4.14.77.65.77s.64-.24.64-.72-.26-.79-.66-.79H65.3Z"/><path class="cls-1" d="M6.2,84.6l2.22-3.2H9.63v3.25h.72v.9H9.63v1.24H8.34V85.55H6.2Zm2.14-1.83h0L7.1,84.65H8.34Z"/><path class="cls-1" d="M28.91,99.19H32l-.09,1h-2l-.13,1a1.29,1.29,0,0,1,.87-.29,1.65,1.65,0,0,1,1.62,1.81,1.91,1.91,0,0,1-2.07,2,1.64,1.64,0,0,1-1.82-1.81l1.23,0V103a.68.68,0,0,0,.62.74c.51,0,.71-.47.71-.94s-.19-1-.68-1a.62.62,0,0,0-.59.42L28.56,102Z"/><path class="cls-1" d="M61.7,100.8c0-.31-.13-.62-.5-.62-.64,0-.77.75-.79,1.61h0a1.37,1.37,0,0,1,1.14-.56,1.5,1.5,0,0,1,1.5,1.69,1.79,1.79,0,0,1-1.9,1.88c-1,0-2-.57-2-2.61,0-1.42.37-3,2.08-3a1.56,1.56,0,0,1,1.7,1.48Zm-.5,1.38c-.37,0-.64.28-.64.79s.23.83.64.83.65-.31.65-.83-.21-.79-.65-.79Z"/><path class="cls-1" d="M75.82,93.89h3.81v1a7.49,7.49,0,0,0-1.86,4.39H76.28a9.48,9.48,0,0,1,2.08-4.34H75.82Z"/><path class="cls-1" d="M102.91,114.57c-1.1,0-1.92-.47-1.92-1.66a1.22,1.22,0,0,1,1-1.25v0a1.29,1.29,0,0,1-.77-1.21c0-1,.73-1.47,1.77-1.47s1.64.43,1.64,1.47a1.3,1.3,0,0,1-.76,1.21v0a1.21,1.21,0,0,1,1,1.25c0,1.18-.83,1.65-1.91,1.65Zm0-2.49c-.49,0-.64.32-.64.77s.16.77.64.77.63-.33.63-.77-.15-.77-.63-.77Zm0-2.17c-.32,0-.52.16-.52.65s.2.67.52.67.52-.18.52-.67-.21-.65-.52-.65Z"/><path class="cls-1" d="M196.08,68.19A15,15,0,0,1,183,82.85c-6.57.81-12-1.31-15.68-6.88-5.48-8.26-1-19.32,8.78-22.08,8-2.26,16.49,1.89,19.14,9.49A19.06,19.06,0,0,1,196.08,68.19Zm-15.52,7.19a12.14,12.14,0,0,0,1.35-.17,7.22,7.22,0,0,0,5.29-8.6A7.1,7.1,0,0,0,181.49,61a6.74,6.74,0,0,0-6.93,3.66c-2.55,4.81.76,10.72,6,10.75Z"/><path class="cls-1" d="M147.94,91.43c2.5,0,4.92,0,7.33,0,.27,0,.59.33.77.58l5.07,7,.54.71,2-2.78c1.18-1.66,2.34-3.35,3.54-5a1.16,1.16,0,0,1,.73-.5c2.23,0,4.46,0,6.69,0a1.38,1.38,0,0,1,.27.08v28.22h-7.35V101.41l-.2,0c-.15.21-.3.41-.44.62l-4.66,6.77c-.49.71-.57.71-1.07,0l-4.73-6.52c-.21-.3-.44-.59-.8-1.08v18.58H148Z"/><path class="cls-1" d="M264.73,82.67V74.05h-6.9V82.7h-8.27v-29h8.25V66.5h6.89V53.72h8.24v29Z"/><path class="cls-1" d="M198.85,53.77h8.5v1c0,5.43,0,10.86,0,16.28a9.12,9.12,0,0,0,.36,2.54,2.9,2.9,0,0,0,2.54,2.06,6.09,6.09,0,0,0,1.28.1c2.52-.15,3.65-1.49,3.67-4.31q0-8.3,0-16.6v-1a6.12,6.12,0,0,1,.67-.06c2.34,0,4.68,0,7,0,.52,0,.77.1.76.7,0,6.07,0,12.14-.07,18.21-.1,5.53-4.2,9.74-9.89,10.4a15.94,15.94,0,0,1-8.89-1.19A9.9,9.9,0,0,1,199,73.11c-.22-2.91-.13-5.85-.15-8.77,0-3.2,0-6.4,0-9.6Z"/><path class="cls-1" d="M196.56,91.14h7.5c0,.26,0,.47,0,.67,0,5.62.05,11.23,0,16.85-.05,4.26-1.69,7.68-5.67,9.65a15.55,15.55,0,0,1-8.57,1.25,12.58,12.58,0,0,1-5.33-1.68,9.62,9.62,0,0,1-4.82-8.43c-.13-6.07,0-12.14,0-18.28h7.54V92c0,5.43,0,10.85,0,16.29a9.35,9.35,0,0,0,.17,1.75,3.73,3.73,0,0,0,3.41,3.16,8.38,8.38,0,0,0,2.55-.06c2.07-.39,3.21-2.13,3.22-4.76,0-3.25,0-6.5,0-9.75V91.14Z"/><path class="cls-1" d="M156.53,82.73H147.9v-.89c0-2.77,0-5.53,0-8.3a3,3,0,0,0-.39-1.43q-5.07-8.73-10.19-17.45l-.51-.92h1c2.55,0,5.11,0,7.66,0a1.38,1.38,0,0,1,1.44.83c1.67,3.06,3.4,6.09,5.11,9.13l.4.64c.19-.32.35-.56.48-.8,1.7-3.05,3.4-6.09,5.07-9.16a1,1,0,0,1,1.06-.63c2.77,0,5.53,0,8.46,0-.2.38-.34.65-.49.92-3.3,5.71-6.62,11.42-9.91,17.14a3.5,3.5,0,0,0-.41,1.58c-.06,2.88,0,5.75-.06,8.63,0,.2,0,.41,0,.72Z"/><path class="cls-1" d="M270.73,96.76,265,100.65c-.17-.2-.33-.38-.47-.56a7,7,0,0,0-7.72-2.51c-2.92.72-4.25,3-4.76,5.81a9.53,9.53,0,0,0,.45,5.23,6.35,6.35,0,0,0,5.13,4.38c2.76.42,5.24-.17,7-2.57.27-.36.52-.74.84-1.19l5.76,3.69a12.26,12.26,0,0,1-7.47,6.07c-4.7,1.23-9.22.88-13.36-1.89a14.46,14.46,0,0,1-5.79-15.67,14,14,0,0,1,12-10.53c4.4-.52,8.47.33,11.85,3.39.78.71,1.44,1.58,2.24,2.46Z"/><path class="cls-1" d="M227.9,94.48,223.62,99a5.92,5.92,0,0,0-4.09-2,8.58,8.58,0,0,0-1.68.11,2,2,0,0,0-1.62,1.69,1.7,1.7,0,0,0,1.22,1.87c1.5.59,3.05,1,4.56,1.6a27.86,27.86,0,0,1,2.89,1.19,7.83,7.83,0,0,1,4.5,8.85,7.69,7.69,0,0,1-6,6.77,16.09,16.09,0,0,1-13-1.68,30.7,30.7,0,0,1-3.39-2.81l5.57-4.18c.64.59,1.21,1.15,1.82,1.65a6.72,6.72,0,0,0,6.1,1.12,1.91,1.91,0,0,0,1.59-1.72,1.79,1.79,0,0,0-1.2-2c-1.42-.61-2.93-1-4.36-1.63a23,23,0,0,1-4-1.86c-2.89-1.88-3.86-4.72-3.45-8a7.2,7.2,0,0,1,4.85-6.21c4.72-1.75,9.22-1.37,13.25,1.93a3.7,3.7,0,0,1,.36.33l.41.52Z"/><path class="cls-1" d="M246.49,61.13h-5.43V82.67h-8.75v-1c0-6.54,0-13.06,0-19.59,0-.78-.2-1-1-1-1.52.06-3.05,0-4.62,0V53.75h19.77Z"/><path class="cls-1" d="M240.68,119.63h-7.31a2,2,0,0,1-.35-.06V91.42h7.66Z"/><path class="cls-1" d="M231.38,44.41a5.25,5.25,0,0,1,10.49-.08,5.25,5.25,0,0,1-10.49.08Z"/><path class="cls-2" d="M63.57,12.45a3.45,3.45,0,0,0,.66,1.76,3.8,3.8,0,0,0,3.08,1.07A6.49,6.49,0,0,0,69.42,15,2,2,0,0,0,71,13a1.47,1.47,0,0,0-.76-1.33,8.42,8.42,0,0,0-2.4-.81l-1.87-.41a11.46,11.46,0,0,1-3.79-1.32,4.22,4.22,0,0,1-1.74-3.74,4.94,4.94,0,0,1,1.71-3.85,7.25,7.25,0,0,1,5-1.54,7.65,7.65,0,0,1,4.71,1.45,5.15,5.15,0,0,1,2.05,4.2H70.43A2.49,2.49,0,0,0,69,3.43,4.73,4.73,0,0,0,66.88,3a4.14,4.14,0,0,0-2.28.56,1.78,1.78,0,0,0-.85,1.57,1.49,1.49,0,0,0,.84,1.39,10.43,10.43,0,0,0,2.29.71l3,.72a7.72,7.72,0,0,1,3,1.25,4.23,4.23,0,0,1,1.55,3.53,5,5,0,0,1-1.83,3.93,7.75,7.75,0,0,1-5.17,1.56,8.43,8.43,0,0,1-5.37-1.54,5.1,5.1,0,0,1-1.95-4.23Z"/><path class="cls-2" d="M80,5v7.7a4,4,0,0,0,.25,1.64,1.79,1.79,0,0,0,1.79,1,2.33,2.33,0,0,0,2.33-1.39,5,5,0,0,0,.33-2V5h3.38V17.78H84.88V16l-.24.35a2.21,2.21,0,0,1-.44.52,4.62,4.62,0,0,1-1.51,1,5.23,5.23,0,0,1-1.72.26,3.82,3.82,0,0,1-3.81-2,8,8,0,0,1-.54-3.32V5Z"/><path class="cls-2" d="M102.11,6.38a6.8,6.8,0,0,1,1.56,4.85,7.69,7.69,0,0,1-1.52,5.14,5,5,0,0,1-3.94,1.77,4.08,4.08,0,0,1-2.54-.76,4.81,4.81,0,0,1-1.09-1.23V22.8h-3.3V5h3.19V6.89a5.61,5.61,0,0,1,1.16-1.31,4.29,4.29,0,0,1,2.67-.86A5,5,0,0,1,102.11,6.38Zm-2.56,2.4a2.38,2.38,0,0,0-2.21-1.14,2.51,2.51,0,0,0-2.52,1.72,6.42,6.42,0,0,0-.36,2.32,3.67,3.67,0,0,0,1.2,3.13,2.74,2.74,0,0,0,1.68.53,2.44,2.44,0,0,0,2.15-1.08,5,5,0,0,0,.74-2.87A5,5,0,0,0,99.55,8.78Z"/><path class="cls-2" d="M116.77,6.38a6.8,6.8,0,0,1,1.56,4.85,7.64,7.64,0,0,1-1.52,5.14,5,5,0,0,1-3.94,1.77,4.08,4.08,0,0,1-2.54-.76,4.81,4.81,0,0,1-1.09-1.23V22.8h-3.3V5h3.2V6.89a5.37,5.37,0,0,1,1.15-1.31A4.29,4.29,0,0,1,113,4.72,5,5,0,0,1,116.77,6.38Zm-2.56,2.4A2.38,2.38,0,0,0,112,7.64a2.51,2.51,0,0,0-2.52,1.72,6.42,6.42,0,0,0-.36,2.32,3.67,3.67,0,0,0,1.2,3.13,2.74,2.74,0,0,0,1.68.53,2.44,2.44,0,0,0,2.15-1.08,5,5,0,0,0,.74-2.87A5,5,0,0,0,114.21,8.78Z"/><path class="cls-2" d="M131.34,16.21a7,7,0,0,1-9.82,0,7.37,7.37,0,0,1-1.62-4.8,7.44,7.44,0,0,1,1.62-4.79,7,7,0,0,1,9.82,0A7.44,7.44,0,0,1,133,11.41,7.37,7.37,0,0,1,131.34,16.21Zm-2.67-1.84a4.87,4.87,0,0,0,.79-3,4.85,4.85,0,0,0-.79-3,2.64,2.64,0,0,0-2.25-1,2.67,2.67,0,0,0-2.26,1,4.85,4.85,0,0,0-.79,3,4.87,4.87,0,0,0,.79,3,2.68,2.68,0,0,0,2.26,1A2.65,2.65,0,0,0,128.67,14.37Z"/><path class="cls-2" d="M142.45,4.71h.28V8.14l-.56,0h-.4a2.78,2.78,0,0,0-2.71,1.31,5.22,5.22,0,0,0-.38,2.27v6.11h-3.37V5h3.19V7.23a7.47,7.47,0,0,1,1.35-1.75,3.68,3.68,0,0,1,2.44-.78Z"/><path class="cls-2" d="M143.38,7.5V5.12h1.78V1.56h3.3V5.12h2.08V7.5h-2.08v6.75a1.55,1.55,0,0,0,.2,1,2.19,2.19,0,0,0,1.22.19h.32l.34,0v2.49L149,18a4.23,4.23,0,0,1-3.23-.82,2.46,2.46,0,0,1-.56-1.77V7.5Z"/><path class="cls-2" d="M161,5.26a5.19,5.19,0,0,1,2.2,1.89,6.13,6.13,0,0,1,1,2.64,16,16,0,0,1,.11,2.54H155A3,3,0,0,0,156.37,15a3.41,3.41,0,0,0,1.84.48,2.83,2.83,0,0,0,1.86-.58,2.87,2.87,0,0,0,.69-.88h3.41a4.2,4.2,0,0,1-1.24,2.31,6.23,6.23,0,0,1-4.81,1.86,7,7,0,0,1-4.5-1.57q-2-1.58-2-5.11a6.92,6.92,0,0,1,1.76-5.09A6.15,6.15,0,0,1,158,4.66,7.32,7.32,0,0,1,161,5.26Zm-5,2.89a3.44,3.44,0,0,0-.89,2h5.75a2.75,2.75,0,0,0-.89-2,2.91,2.91,0,0,0-2-.69A2.64,2.64,0,0,0,156,8.15Z"/><path class="cls-2" d="M172.8,5.21a4.13,4.13,0,0,1,1.47,1.41V.53h3.38V17.78h-3.24V16a4.68,4.68,0,0,1-1.63,1.65,4.62,4.62,0,0,1-2.27.52,4.76,4.76,0,0,1-3.77-1.81,7,7,0,0,1-1.53-4.65,8,8,0,0,1,1.5-5.15,4.91,4.91,0,0,1,4-1.87A4.11,4.11,0,0,1,172.8,5.21Zm.82,9.1a4.59,4.59,0,0,0,.74-2.73,4.18,4.18,0,0,0-1.18-3.35,2.55,2.55,0,0,0-1.69-.61,2.36,2.36,0,0,0-2.15,1.1,5.12,5.12,0,0,0-.69,2.75,5.11,5.11,0,0,0,.7,2.83,2.36,2.36,0,0,0,2.12,1.06A2.46,2.46,0,0,0,173.62,14.31Z"/><path class="cls-2" d="M198.26,6.54a7.31,7.31,0,0,1,1.44,4.69,8.15,8.15,0,0,1-1.42,4.93,5.11,5.11,0,0,1-6.5,1.32,5.11,5.11,0,0,1-1.25-1.31v1.61h-3.29V.53h3.34V6.67A4.73,4.73,0,0,1,192,5.31a4.23,4.23,0,0,1,2.32-.59A4.76,4.76,0,0,1,198.26,6.54Zm-2.79,7.78a4.75,4.75,0,0,0,.72-2.74,6,6,0,0,0-.35-2.25,2.47,2.47,0,0,0-2.48-1.69,2.51,2.51,0,0,0-2.52,1.65,6.14,6.14,0,0,0-.35,2.28,4.74,4.74,0,0,0,.73,2.72,2.53,2.53,0,0,0,2.23,1.07A2.3,2.3,0,0,0,195.47,14.32Z"/><path class="cls-2" d="M202.52,20.23l.42,0a4.83,4.83,0,0,0,.94,0,1.56,1.56,0,0,0,.75-.26,1.81,1.81,0,0,0,.55-.84,2,2,0,0,0,.21-.77L200.7,5h3.71l2.79,9.43L209.84,5h3.55L209,17.57a17.44,17.44,0,0,1-2,4.5c-.49.58-1.47.88-2.95.88h-.72l-.81,0Z"/></g></g></svg>