<svg xmlns="http://www.w3.org/2000/svg" viewBox="0 0 272.95 117.14"><defs><style>.cls-1{fill:#1d1d1b;}.cls-2{fill:#010101;}</style></defs><g id="Layer_2" data-name="Layer 2"><g id="Layer_1-2" data-name="Layer 1"><path class="cls-1" d="M75.72,10.37a3,3,0,0,0,.55,1.48,3.2,3.2,0,0,0,2.56.88,5.43,5.43,0,0,0,1.77-.23,1.68,1.68,0,0,0,1.29-1.67,1.22,1.22,0,0,0-.63-1.1,6.91,6.91,0,0,0-2-.68L77.7,8.71a10,10,0,0,1-3.16-1.1,3.53,3.53,0,0,1-1.45-3.12,4.12,4.12,0,0,1,1.42-3.21A6.08,6.08,0,0,1,78.69,0a6.36,6.36,0,0,1,3.93,1.21,4.29,4.29,0,0,1,1.71,3.5H81.44a2.07,2.07,0,0,0-1.17-1.85,4,4,0,0,0-1.79-.36,3.42,3.42,0,0,0-1.9.47,1.49,1.49,0,0,0-.71,1.31,1.23,1.23,0,0,0,.7,1.15,8.77,8.77,0,0,0,1.91.6L81,6.62a6.33,6.33,0,0,1,2.49,1,3.5,3.5,0,0,1,1.29,2.94,4.12,4.12,0,0,1-1.53,3.27A6.43,6.43,0,0,1,79,15.19a7,7,0,0,1-4.47-1.29,4.23,4.23,0,0,1-1.63-3.53Z"/><path class="cls-1" d="M89.44,4.17v6.42A3.36,3.36,0,0,0,89.66,12a1.47,1.47,0,0,0,1.48.81,1.94,1.94,0,0,0,2-1.15A4.24,4.24,0,0,0,93.36,10V4.17h2.82V14.81h-2.7v-1.5s-.09.13-.2.29a1.53,1.53,0,0,1-.37.43,3.72,3.72,0,0,1-1.26.8,4.13,4.13,0,0,1-1.43.22,3.18,3.18,0,0,1-3.17-1.7,6.46,6.46,0,0,1-.46-2.76V4.17Z"/><path class="cls-1" d="M107.84,5.31a5.68,5.68,0,0,1,1.3,4.05,6.36,6.36,0,0,1-1.27,4.28,4.12,4.12,0,0,1-3.28,1.48,3.38,3.38,0,0,1-2.12-.64,4,4,0,0,1-.91-1V19H98.81V4.17h2.66V5.74a4.78,4.78,0,0,1,1-1.09,3.51,3.51,0,0,1,2.22-.71A4.2,4.2,0,0,1,107.84,5.31Zm-2.14,2a2,2,0,0,0-1.84-.94,2.09,2.09,0,0,0-2.1,1.43,5.4,5.4,0,0,0-.29,1.94,3.07,3.07,0,0,0,1,2.6,2.25,2.25,0,0,0,1.4.44,2,2,0,0,0,1.79-.9,4.13,4.13,0,0,0,.62-2.39A4.17,4.17,0,0,0,105.7,7.31Z"/><path class="cls-1" d="M120.06,5.31a5.73,5.73,0,0,1,1.3,4.05,6.36,6.36,0,0,1-1.28,4.28,4.1,4.1,0,0,1-3.27,1.48,3.41,3.41,0,0,1-2.13-.64,4,4,0,0,1-.9-1V19H111V4.17h2.66V5.74a4.53,4.53,0,0,1,1-1.09,3.56,3.56,0,0,1,2.23-.71A4.2,4.2,0,0,1,120.06,5.31Zm-2.14,2a2,2,0,0,0-1.84-.94A2.09,2.09,0,0,0,114,7.8a5.38,5.38,0,0,0-.3,1.94,3,3,0,0,0,1,2.6,2.23,2.23,0,0,0,1.4.44,2,2,0,0,0,1.79-.9,4.13,4.13,0,0,0,.62-2.39A4.17,4.17,0,0,0,117.92,7.31Z"/><path class="cls-1" d="M132.2,13.51a5.86,5.86,0,0,1-8.19,0,6.19,6.19,0,0,1-1.34-4,6.22,6.22,0,0,1,1.34-4,5.81,5.81,0,0,1,8.19,0,6.17,6.17,0,0,1,1.35,4A6.14,6.14,0,0,1,132.2,13.51ZM130,12a4,4,0,0,0,.66-2.46A4,4,0,0,0,130,7a2.47,2.47,0,0,0-3.75,0,4,4,0,0,0-.66,2.47,4,4,0,0,0,.66,2.46A2.46,2.46,0,0,0,130,12Z"/><path class="cls-1" d="M141.45,3.92l.24,0V6.79a4.47,4.47,0,0,0-.47,0h-.33a2.32,2.32,0,0,0-2.26,1.09,4.34,4.34,0,0,0-.32,1.9v5.08h-2.8V4.17h2.65V6a5.89,5.89,0,0,1,1.13-1.46,3,3,0,0,1,2-.65Z"/><path class="cls-1" d="M142.23,6.25v-2h1.48v-3h2.76v3h1.72v2h-1.72v5.63a1.28,1.28,0,0,0,.16.81c.11.11.45.16,1,.16h.27l.27,0v2.08l-1.31.05a3.53,3.53,0,0,1-2.7-.68,2.05,2.05,0,0,1-.47-1.48V6.25Z"/><path class="cls-1" d="M156.92,4.39A4.33,4.33,0,0,1,158.76,6a5.33,5.33,0,0,1,.85,2.2,14.8,14.8,0,0,1,.09,2.11h-7.76a2.58,2.58,0,0,0,1.12,2.25,2.77,2.77,0,0,0,1.53.4,2.34,2.34,0,0,0,1.55-.49,2.44,2.44,0,0,0,.57-.73h2.84a3.45,3.45,0,0,1-1,1.92,5.15,5.15,0,0,1-4,1.56,5.81,5.81,0,0,1-3.75-1.31,5.17,5.17,0,0,1-1.63-4.27,5.77,5.77,0,0,1,1.47-4.24,5.12,5.12,0,0,1,3.8-1.47A6,6,0,0,1,156.92,4.39Zm-4.17,2.4A2.91,2.91,0,0,0,152,8.44h4.8a2.32,2.32,0,0,0-.74-1.68,2.44,2.44,0,0,0-1.66-.58A2.2,2.2,0,0,0,152.75,6.79Z"/><path class="cls-1" d="M166.75,4.34A3.36,3.36,0,0,1,168,5.52V.44h2.82V14.81h-2.7V13.34a4,4,0,0,1-1.36,1.38,3.9,3.9,0,0,1-1.9.43,4,4,0,0,1-3.13-1.51,5.81,5.81,0,0,1-1.28-3.87,6.64,6.64,0,0,1,1.26-4.29A4.07,4.07,0,0,1,165,3.92,3.48,3.48,0,0,1,166.75,4.34Zm.68,7.58a3.86,3.86,0,0,0,.62-2.27,3.48,3.48,0,0,0-1-2.79,2.1,2.1,0,0,0-1.4-.51,2,2,0,0,0-1.8.92,4.3,4.3,0,0,0-.57,2.29,4.31,4.31,0,0,0,.58,2.36,2,2,0,0,0,1.77.88A2,2,0,0,0,167.43,11.92Z"/><path class="cls-1" d="M188,5.45a6.16,6.16,0,0,1,1.19,3.91A6.82,6.82,0,0,1,188,13.47a3.83,3.83,0,0,1-3.28,1.63,3.87,3.87,0,0,1-2.14-.53,4.39,4.39,0,0,1-1-1.09v1.33h-2.74V.44h2.78V5.56a4.19,4.19,0,0,1,1.17-1.14,3.56,3.56,0,0,1,1.93-.48A4,4,0,0,1,188,5.45Zm-2.33,6.48a3.94,3.94,0,0,0,.6-2.28A5.3,5.3,0,0,0,186,7.77a2.07,2.07,0,0,0-2.07-1.4,2.09,2.09,0,0,0-2.1,1.37,5.09,5.09,0,0,0-.29,1.9,3.89,3.89,0,0,0,.61,2.26,2.08,2.08,0,0,0,1.86.9A1.93,1.93,0,0,0,185.64,11.93Z"/><path class="cls-1" d="M191.51,16.86l.36,0a5,5,0,0,0,.78,0,1.48,1.48,0,0,0,.62-.23,1.44,1.44,0,0,0,.46-.69,1.66,1.66,0,0,0,.18-.65L190,4.17h3.09L195.42,12l2.19-7.85h3l-3.65,10.47a14.41,14.41,0,0,1-1.67,3.75,3.15,3.15,0,0,1-2.46.73h-.6l-.68,0Z"/><path class="cls-2" d="M18,89.48c-4.21,0-5.67,3.9-5.67,8.63s1.46,8.64,5.67,8.64,5.62-3.9,5.62-8.64C23.44,92.81,22.3,89.48,18,89.48Z"/><path class="cls-2" d="M102,99a8.51,8.51,0,0,0-1.28-2.63A17.29,17.29,0,0,0,98,93.66l6.14-6.07a38.6,38.6,0,0,0-2.82-2.9c-3.94-3.49-10.08-5.44-10.08-5.44h15.3V53.14A10.92,10.92,0,0,0,104.21,46c-2.87-3.42-6.32-4-10.13-4.05-4.54-.09-9.31,2.46-9.31,2.46s-2.23-2.32-7-2.46a18.85,18.85,0,0,0-7.43,1.15H39.87V33.67H23V45.76s-7-12.09-7-12.09H0v82.55H14.74c.27,0,3.57,1.91,9.84.21a12.71,12.71,0,0,0,6-4s4.15,4.5,13.13,4.44c7.13-.06,9.27-2.08,9.27-2.08v1.38h16.6v-3.74a27.17,27.17,0,0,0,15.21,4.44c7.06,0,9.5-2.08,9.5-2.08v1.38h17V99ZM61.34,47.28h8.12v2.45c2.07-2.45,5.51-3.17,8-3.17a8.55,8.55,0,0,1,7.33,3.69,11.89,11.89,0,0,1,8.89-3.69c2.71,0,8.53.93,8.53,7.27V74.94H94.1V58.77c0-3.9-1.09-5.67-4.16-5.67-2.7,0-4.11,2-4.11,4.83v17H77.72V57.62c0-2.7-.83-4.52-4-4.52-3.28,0-4.31,2.13-4.31,4.63V74.94H61.34Zm-25.11,0h8.11v18.1c0,2.44.89,3.75,3.95,3.75a4,4,0,0,0,4.32-4.32V47.28h8.11V74.94H52.61V72.5c-2.08,2.44-5.51,3.17-8,3.17-6.55,0-8.37-3.8-8.37-8Zm7.34,59.47c3,0,4.42-1.56,6.76-4.89L56.41,105c-2.8,5.2-7.22,7.65-13.41,7.65s-10.53-3.15-12.45-7.85c-1.95,5.5-6.21,7.85-11.28,7.85a9.34,9.34,0,0,1-7.12-3.43h-.1V112H4.24v-74h9.37L27.08,61.58h.1V37.92h8.43v37H26.35L12.78,51.64h-.1V86.51a9.94,9.94,0,0,1,7.28-3,11.16,11.16,0,0,1,10.88,7.75c2.05-5,6.28-7.75,12.16-7.75,10.09,0,13.52,7.69,13.57,16.22h-19c.05,5.3,3.43,7,6,7ZM65.3,95.93v16H57.19V84.28H65.3v2.81a12.93,12.93,0,0,1,7.59-2.91l0,7.17-.88.11c-4.84.57-6.76,1.4-6.76,4.47Zm19.85,16.74c-6,0-9.47-1.71-13.52-5.46l5.05-4.37c2.49,2.39,5,3.9,8.73,3.9,1.35,0,4.42-.31,4.42-2.8,0-4.32-16.38-.89-16.38-10.71,0-7,6.09-9.67,11.7-9.67a22.19,22.19,0,0,1,12.22,4l-5,4.89c-1.62-1.92-5.1-3-7.64-3-2,0-3.49.73-3.49,2.14,0,4.72,16.38.83,16.38,11.17,0,7.28-6.46,9.88-12.49,9.88Zm21.8-.73H98.53v-8.73H107Z"/><path class="cls-2" d="M43,89.48a5.58,5.58,0,0,0-5.51,5.3h11A5.23,5.23,0,0,0,43,89.48Z"/><path class="cls-2" d="M8.41,45.65H7.13V41.71A4.2,4.2,0,0,1,6,41.89V41a1.39,1.39,0,0,0,1.43-.78h1Z"/><path class="cls-2" d="M42,54.38H38.36v-.94c2-1.62,2.35-2,2.35-2.93,0-.44-.19-.68-.49-.68s-.53.52-.53.84a1.73,1.73,0,0,0,0,.32l-1.31-.12v-.22a1.75,1.75,0,0,1,1.71-1.77h.08A1.63,1.63,0,0,1,42,50.5c0,1.18-.51,1.72-2,2.82v0h2Z"/><path class="cls-2" d="M65.29,51.09h.29a.5.5,0,0,0,.53-.57c0-.34-.08-.65-.52-.65s-.54.41-.56.78l-1.24-.1a1.69,1.69,0,0,1,1.88-1.66c1,0,1.77.47,1.77,1.49a1.13,1.13,0,0,1-.81,1.15h0a1.26,1.26,0,0,1,1,1.26c0,1.32-1.1,1.7-2.05,1.7-1.37,0-1.89-.67-1.89-1.94l1.27-.1a.65.65,0,0,0,0,.28c0,.39.14.76.65.76s.64-.23.64-.72S66,52,65.55,52H65.3Z"/><path class="cls-2" d="M6.2,80.48l2.22-3.2H9.63v3.25h.72v.9H9.63v1.24H8.34V81.43H6.2Zm2.14-1.83h0L7.1,80.53H8.34Z"/><path class="cls-2" d="M28.91,95.06H32l-.09,1h-2l-.13.94a1.34,1.34,0,0,1,.87-.28,1.65,1.65,0,0,1,1.62,1.81,1.91,1.91,0,0,1-2.07,2,1.64,1.64,0,0,1-1.82-1.8l1.23,0v.16a.67.67,0,0,0,.62.73c.51,0,.71-.46.71-.93s-.19-1-.68-1a.62.62,0,0,0-.59.42l-1.08-.18Z"/><path class="cls-2" d="M61.7,96.68c0-.31-.13-.62-.5-.62-.64,0-.77.75-.79,1.61h0a1.32,1.32,0,0,1,1.14-.56,1.5,1.5,0,0,1,1.5,1.68,1.79,1.79,0,0,1-1.9,1.88c-1,0-2-.56-2-2.6,0-1.42.37-3,2.08-3A1.56,1.56,0,0,1,63,96.55Zm-.5,1.37c-.37,0-.64.29-.64.79s.23.83.64.83.65-.3.65-.83-.21-.79-.65-.79Z"/><path class="cls-2" d="M75.82,89.76h3.81v1a7.49,7.49,0,0,0-1.86,4.39H76.28a9.44,9.44,0,0,1,2.08-4.34H75.82Z"/><path class="cls-2" d="M102.91,110.45c-1.1,0-1.92-.48-1.92-1.66a1.22,1.22,0,0,1,1-1.25v0a1.29,1.29,0,0,1-.77-1.21c0-1,.73-1.47,1.77-1.48s1.64.44,1.64,1.48a1.3,1.3,0,0,1-.76,1.21v0a1.19,1.19,0,0,1,1,1.24c0,1.18-.83,1.66-1.91,1.66Zm0-2.49c-.49,0-.64.32-.64.76s.16.78.64.78.63-.33.63-.78-.15-.76-.63-.76Zm0-2.17c-.32,0-.52.16-.52.65s.2.66.52.66.52-.17.52-.66-.21-.65-.52-.65Z"/><path class="cls-2" d="M196.08,64.07A15,15,0,0,1,183,78.73c-6.57.8-12-1.31-15.68-6.89-5.48-8.26-1-19.31,8.78-22.07,8-2.26,16.49,1.89,19.14,9.49A19,19,0,0,1,196.08,64.07Zm-15.52,7.19a12.14,12.14,0,0,0,1.35-.17,7.23,7.23,0,0,0,5.29-8.6,7.12,7.12,0,0,0-5.71-5.65,6.77,6.77,0,0,0-6.93,3.67c-2.55,4.8.76,10.72,6,10.75Z"/><path class="cls-2" d="M147.94,87.31c2.5,0,4.92,0,7.33,0,.27,0,.59.34.77.59,1.7,2.32,3.38,4.65,5.07,7,.16.22.33.42.54.71.69-1,1.33-1.87,2-2.79,1.18-1.66,2.34-3.34,3.54-5a1.16,1.16,0,0,1,.73-.5c2.23,0,4.46,0,6.69,0a.92.92,0,0,1,.27.08v28.22h-7.35V97.29l-.2-.05-.44.61-4.66,6.78c-.49.71-.57.71-1.07,0q-2.37-3.25-4.73-6.53l-.8-1.07v18.57H148Z"/><path class="cls-2" d="M264.73,78.54V69.92h-6.9v8.65h-8.27v-29h8.25V62.38h6.89V49.6h8.24V78.55Z"/><path class="cls-2" d="M198.85,49.64h8.5v1c0,5.43,0,10.85,0,16.28a9,9,0,0,0,.36,2.53,2.9,2.9,0,0,0,2.54,2.07,5.48,5.48,0,0,0,1.28.09c2.52-.14,3.65-1.48,3.67-4.3q0-8.31,0-16.6v-1a6.38,6.38,0,0,1,.67-.07c2.34,0,4.68,0,7,0,.52,0,.77.09.76.7,0,6.07,0,12.14-.07,18.21-.1,5.53-4.2,9.74-9.89,10.4a15.94,15.94,0,0,1-8.89-1.19A9.91,9.91,0,0,1,199,69c-.22-2.91-.13-5.85-.15-8.78,0-3.19,0-6.39,0-9.59Z"/><path class="cls-2" d="M196.56,87h7.5c0,.25,0,.46,0,.67,0,5.62.05,11.23,0,16.85-.05,4.25-1.69,7.68-5.67,9.64a15.46,15.46,0,0,1-8.57,1.26,12.58,12.58,0,0,1-5.33-1.68,9.63,9.63,0,0,1-4.82-8.44c-.13-6.06,0-12.14,0-18.28h7.54v.87q0,8.15,0,16.28a9.46,9.46,0,0,0,.17,1.76,3.72,3.72,0,0,0,3.41,3.15,8.72,8.72,0,0,0,2.55,0c2.07-.39,3.21-2.13,3.22-4.77,0-3.25,0-6.5,0-9.75V87Z"/><path class="cls-2" d="M156.53,78.61H147.9v-.89c0-2.77,0-5.54,0-8.3a3,3,0,0,0-.39-1.43q-5.07-8.73-10.19-17.45l-.51-.92h1c2.55,0,5.11,0,7.66,0a1.38,1.38,0,0,1,1.44.83c1.67,3.06,3.4,6.09,5.11,9.13l.4.63c.19-.32.35-.55.48-.79,1.7-3,3.4-6.1,5.07-9.16A1.05,1.05,0,0,1,159,49.6c2.77,0,5.53,0,8.46,0-.2.38-.34.65-.49.91-3.3,5.72-6.62,11.42-9.91,17.15a3.5,3.5,0,0,0-.41,1.58c-.06,2.87,0,5.75-.06,8.62,0,.21,0,.42,0,.73Z"/><path class="cls-2" d="M270.73,92.64,265,96.52c-.17-.2-.33-.37-.47-.56a7,7,0,0,0-7.72-2.51c-2.92.72-4.25,3-4.76,5.81a9.55,9.55,0,0,0,.45,5.24,6.34,6.34,0,0,0,5.13,4.37c2.76.42,5.24-.16,7-2.56.27-.36.52-.74.84-1.2l5.76,3.69a12.19,12.19,0,0,1-7.47,6.07c-4.7,1.24-9.22.88-13.36-1.88a14.47,14.47,0,0,1-5.79-15.67,14,14,0,0,1,12-10.54c4.4-.51,8.47.34,11.85,3.4.78.71,1.44,1.57,2.24,2.46Z"/><path class="cls-2" d="M227.9,90.36l-4.28,4.5a5.92,5.92,0,0,0-4.09-2,8.58,8.58,0,0,0-1.68.11,2,2,0,0,0-1.62,1.68,1.7,1.7,0,0,0,1.22,1.88c1.5.58,3.05,1,4.56,1.6a27.86,27.86,0,0,1,2.89,1.19,7.83,7.83,0,0,1,4.5,8.85,7.69,7.69,0,0,1-6,6.77,16.16,16.16,0,0,1-13-1.68,30.7,30.7,0,0,1-3.39-2.81l5.57-4.18c.64.58,1.21,1.15,1.82,1.65a6.69,6.69,0,0,0,6.1,1.11,1.91,1.91,0,0,0,1.59-1.71,1.78,1.78,0,0,0-1.2-2c-1.42-.61-2.93-1-4.36-1.63a23,23,0,0,1-4-1.86c-2.89-1.88-3.86-4.72-3.45-8a7.19,7.19,0,0,1,4.85-6.21c4.72-1.75,9.22-1.37,13.25,1.93a3.7,3.7,0,0,1,.36.33l.41.52Z"/><path class="cls-2" d="M246.49,57h-5.43V78.55h-8.75v-1c0-6.53,0-13.06,0-19.59,0-.77-.2-1-1-1-1.52.06-3.05,0-4.62,0V49.63h19.77Z"/><path class="cls-2" d="M240.68,115.51h-7.31a2,2,0,0,1-.35-.06V87.29h7.66Z"/><path class="cls-2" d="M231.38,40.29a5.25,5.25,0,0,1,10.49-.09,5.25,5.25,0,0,1-10.49.09Z"/></g></g></svg>