<?xml version="1.0" encoding="utf-8"?>
<!-- Generator: Adobe Illustrator 26.3.1, SVG Export Plug-In . SVG Version: 6.00 Build 0)  -->
<svg version="1.1" id="Layer_1" xmlns="http://www.w3.org/2000/svg" xmlns:xlink="http://www.w3.org/1999/xlink" x="0px" y="0px"
	 viewBox="0 0 1920 186.6" style="enable-background:new 0 0 1920 186.6;" xml:space="preserve">
<style type="text/css">
	.st0{fill:#E4D4DC;}
</style>
<g>
	<path class="st0" d="M1948.5,179.2c-20.3,0-20.3-6.3-40.5-6.3c-20.3,0-20.3,8.7-40.5,8.7c-20.3,0-20.3-15.1-40.6-15.1
		c-20.3,0-20.3,10.9-40.5,10.9c-20.3,0-20.3-19.5-40.5-19.5c-20.3,0-20.3,1.8-40.5,1.8c-20.3,0-20.3,18.8-40.6,18.8
		c-20.3,0-20.3-11.5-40.5-11.5c-20.3,0-20.3,4.8-40.5,4.8c-20.3,0-20.3-18.2-40.5-18.2c-20.3,0-20.3,10.2-40.5,10.2
		c-20.3,0-20.3,14-40.5,14c-20.3,0-20.3,8.6-40.5,8.6c-20.3,0-20.3-4.2-40.5-4.2c-20.3,0-20.3-5.8-40.5-5.8
		c-20.3,0-20.3-18.3-40.5-18.3c-20.3,0-20.3,2-40.5,2c-20.3,0-20.3,23.8-40.5,23.8s-20.3-5.6-40.5-5.6c-20.3,0-20.3-16.9-40.5-16.9
		c-20.3,0-20.3,18.3-40.5,18.3c-20.3,0-20.3-8.1-40.5-8.1s-20.3-12.4-40.5-12.4c-20.3,0-20.3,26.7-40.5,26.7s-20.3-8.2-40.5-8.2
		c-20.3,0-20.3-8.6-40.5-8.6c-20.3,0-20.3,5.3-40.5,5.3c-20.3,0-20.3,12.2-40.5,12.2c-20.3,0-20.3-31-40.5-31
		c-20.3,0-20.3,20.2-40.5,20.2s-20.3-15-40.5-15c-20.3,0-20.3,6.9-40.5,6.9c-20.3,0-20.3-10.1-40.5-10.1
		c-20.3,0-20.3,24.7-40.5,24.7c-20.3,0-20.3-7.5-40.5-7.5c-20.3,0-20.3,4.4-40.5,4.4s-20.3-18.5-40.5-18.5
		c-20.3,0-20.3,12.6-40.5,12.6s-20.3,12.2-40.5,12.2c-20.3,0-20.3-22.5-40.5-22.5c-20.3,0-20.3,7.7-40.5,7.7
		c-20.3,0-20.3,5.3-40.5,5.3s-20.3-5-40.5-5c-20.3,0-20.3-5.9-40.5-5.9c-20.3,0-20.3,2.1-40.5,2.1c-20.3,0-20.3,17.3-40.5,17.3
		c-20.3,0-20.3-13.3-40.6-13.3s-20.3-6.2-40.6-6.2c-7.5,0-32.6-0.9-32.6-7.5c0-18.4,32.5-18.4,32.5-36.8c0-18.4-21.6-18.4-21.6-36.8
		c0-18.4-1.4-18.4-1.4-36.8c0-18.4-8-18.4-8-36.8c0-18.4,23.9-18.4,23.9-36.8c0-18.4-3.6-18.4-3.6-36.8C-8.2-81.4,2-81.4,2-99.8
		s-30.7-18.3-30.7-36.7c0-18.4,8.5-18.4,8.5-36.8s-3-18.4-3-36.8c0-18.4,31.6-18.4,31.6-36.8c0-18.4-16.4-18.4-16.4-36.8
		c0-18.4,14.2-18.4,14.2-36.8c0-18.4-14.3-18.4-14.3-36.8c0-18.4,6.6-18.4,6.6-36.8c0-18.4-13.2-18.4-13.2-36.8
		c0-18.4,6.9-18.4,6.9-36.8c0-18.4-7.6-18.4-7.6-36.8c0-18.4,21.6-18.4,21.6-36.8c0-6.6-11-7.1-3.5-7.1c20.3,0,20.3,10.7,40.5,10.7
		s20.3-3,40.5-3c20.3,0,20.3,1.3,40.5,1.3s20.3-6.8,40.5-6.8s20.3-14,40.5-14s20.3-5.4,40.5-5.4c20.3,0,20.3,3.5,40.5,3.5
		s20.3,5.1,40.5,5.1c20.3,0,20.3-1.2,40.5-1.2s20.3,8.9,40.5,8.9s20.3-6.2,40.5-6.2c20.3,0,20.3,10.4,40.5,10.4s20.3,6.8,40.5,6.8
		c20.3,0,20.3-7.8,40.5-7.8s20.3-14.7,40.5-14.7s20.3,20.5,40.5,20.5s20.3-29.8,40.5-29.8c20.3,0,20.3,4.7,40.5,4.7
		s20.3,25.6,40.5,25.6s20.3-7.7,40.5-7.7s20.3,2.9,40.5,2.9c20.3,0,20.3-21.8,40.5-21.8s20.3,1.2,40.5,1.2s20.3,2.8,40.5,2.8
		s20.3-8,40.5-8c20.3,0,20.3,8.4,40.5,8.4c20.3,0,20.3,7.9,40.5,7.9c20.3,0,20.3-9.3,40.5-9.3c20.3,0,20.3-5.4,40.5-5.4
		c20.3,0,20.3,32.4,40.5,32.4c20.3,0,20.3-11.6,40.5-11.6c20.3,0,20.3,5.4,40.5,5.4c20.3,0,20.3-26.7,40.5-26.7
		c20.3,0,20.3,8.3,40.5,8.3c20.3,0,20.3,14.1,40.6,14.1c20.3,0,20.3-3.4,40.5-3.4c20.3,0,20.3,4.2,40.5,4.2
		c20.3,0,20.2-24.1,40.5-24.1c20.3,0,20.3,17.1,40.5,17.1c20.3,0,20.3,16.6,40.5,16.6c20.3,0,20.3-28,40.5-28
		c20.3,0,20.3,1.6,40.5,1.6c20.3,0,20.3,0.5,40.5,0.5c20.3,0,20.3,5.7,40.5,5.7s20.3-11,40.5-11c20.3,0,20.3,14.4,40.5,14.4
		c20.3,0,20.3-14.2,40.6-14.2c20.3,0,20.3-0.3,40.6-0.3c7.5,0-5.9,20.4-5.9,27c0,18.4,16.2,18.4,16.2,36.8c0,18.4,4.8,18.4,4.8,36.8
		s2.5,18.4,2.5,36.8c0,18.4-0.4,18.4-0.4,36.8c0,18.4-10.1,18.4-10.1,36.8s9.1,18.4,9.1,36.8c0,18.4-21.7,18.4-21.7,36.8
		c0,18.4,34,18.4,34,36.8s-2.7,18.4-2.7,36.8s5.8,18.4,5.8,36.8s-2,18.4-2,36.8c0,18.4-14.6,18.4-14.6,36.8s-17.1,18.4-17.1,36.8
		s8,18.4,8,36.8c0,18.4-2.8,18.4-2.8,36.8c0,18.4,27.5,18.4,27.5,36.8c0,18.4-29.1,18.4-29.1,36.8c0,18.4,28.4,18.4,28.4,36.8
		s-6.2,18.4-6.2,36.8C1972.1,164.3,1956,179.2,1948.5,179.2L1948.5,179.2z"/>
</g>
</svg>
