<svg width="172" height="67" viewBox="0 0 172 67" fill="none" xmlns="http://www.w3.org/2000/svg">
<g clip-path="url(#clip0_809_286)">
<path d="M0.00102695 44.0806V22.9101C0.00102695 22.6794 0.00102695 22.4487 0.00102695 22.218C-0.0042767 21.8998 0.189306 21.7637 0.467748 21.7195C0.599259 21.7094 0.731359 21.7094 0.86287 21.7195C3.27249 21.7195 5.683 21.7337 8.09263 21.7071C8.58498 21.7018 8.8095 21.876 9.03403 22.3046C9.5663 23.3494 10.1623 24.3604 10.8187 25.3319C11.3367 26.0797 11.6744 26.952 12.1031 27.7625C12.1623 27.8739 12.2852 27.9517 12.3789 28.0445C12.4142 27.9331 12.4805 27.8209 12.4814 27.7086C12.4876 25.9612 12.4814 24.2138 12.4867 22.4664C12.4867 22.0024 12.7192 21.7593 13.2 21.7204C13.3309 21.7098 13.4652 21.7204 13.596 21.7204H20.5288C20.6933 21.7085 20.8584 21.7085 21.0229 21.7204C21.1863 21.7428 21.3356 21.8248 21.4421 21.9506C21.5487 22.0764 21.6049 22.2371 21.6001 22.4019C21.6001 23.6879 21.6001 24.9739 21.6001 26.26C21.6001 26.8575 21.6046 26.8601 22.2436 26.8619C23.0392 26.8619 23.8277 26.8619 24.6206 26.8619C28.8128 26.8619 33.0053 26.8619 37.1982 26.8619C37.7064 26.8619 38.2014 26.8698 38.7079 26.6851C39.2383 26.4924 39.8677 26.564 40.3874 26.4199C41.0734 26.2308 41.7319 26.3377 42.3975 26.2697C42.5283 26.2564 42.676 26.2299 42.7909 26.2741C43.3787 26.4968 43.9957 26.5693 44.6074 26.6807C44.7974 26.716 44.945 26.9644 45.1227 27.1005C45.5735 27.4452 46.05 27.6308 46.5759 27.2561C47.3096 26.7373 48.2059 26.7258 49.0244 26.4765C49.4499 26.3626 49.8865 26.295 50.3265 26.275C50.7534 26.2423 51.1839 26.2679 51.6135 26.2679C51.7788 26.2679 51.9741 26.2096 52.1032 26.2776C52.6786 26.5808 53.3513 26.397 53.9241 26.6665C54.3175 26.8369 54.6975 27.0366 55.0609 27.264C55.9448 27.8598 56.659 28.6208 57.063 29.6257C57.2355 30.0861 57.3787 30.557 57.4917 31.0355C57.7631 32.0679 57.6473 33.0976 57.6535 34.1291C57.6747 37.8219 57.6614 41.5156 57.6614 45.2084C57.6504 45.439 57.6521 45.67 57.6667 45.9004C57.7039 46.2248 57.55 46.2681 57.2707 46.2664C55.8175 46.254 54.3652 46.2602 52.9129 46.2602C51.9883 46.2602 51.0637 46.2549 50.14 46.2672C50.0197 46.2672 49.7864 46.1338 49.7864 46.3945C49.7864 46.4829 49.949 46.6155 50.0613 46.6491C51.1927 46.9876 52.1721 47.6134 53.1904 48.1879C54.2697 48.7969 55.1572 49.5924 56.0111 50.4524C56.3647 50.8059 56.3647 50.8183 55.9766 51.2081C55.0927 52.0919 54.2008 52.9758 53.3168 53.8676C53.0278 54.1584 53.0092 54.3255 53.3168 54.4749C54.1451 54.8761 54.5446 55.6239 54.8726 56.3946C55.0653 56.8525 55.326 56.9674 55.7883 56.9577C57.1417 56.9303 58.495 56.9577 59.8483 56.9426C60.1312 56.9426 60.2478 56.9904 60.2452 57.3103C60.2293 59.124 60.2381 60.9342 60.2381 62.7505C60.2381 63.8059 60.2319 64.8612 60.2381 65.9166C60.2381 66.1605 60.186 66.2569 59.9155 66.256C57.01 66.2471 54.1053 66.256 51.1998 66.2427C51.1061 66.2427 50.9267 66.1216 50.9346 66.0783C51.023 65.4923 50.6756 65.7751 50.4767 65.8591C49.6662 66.2012 48.8636 66.5008 47.9469 66.461C46.7279 66.4089 45.5037 66.4186 44.2838 66.4557C42.4824 66.5096 40.8365 65.9988 39.2595 65.1891C39.096 65.1007 38.9448 64.9956 38.7804 64.9116C37.6552 64.338 37.6543 64.3397 37.6454 65.5851C37.6379 65.6837 37.6379 65.7826 37.6454 65.8812C37.6923 66.1914 37.5526 66.2577 37.2609 66.2568C34.5543 66.2462 31.8468 66.2507 29.1402 66.2507C29.1072 66.248 29.0741 66.248 29.0412 66.2507C28.7645 66.2966 28.7097 66.1517 28.7212 65.9121C28.73 65.7469 28.7654 65.6373 28.4781 65.776C27.5747 66.2118 26.6342 66.507 25.5885 66.4628C24.1742 66.4018 22.7501 66.4495 21.3305 66.446C20.9205 66.4411 20.513 66.3817 20.1187 66.2692C18.897 65.9404 17.7833 65.4534 16.8481 64.5837C16.6289 64.3786 16.3955 64.4007 16.1727 64.6261C15.813 64.9903 15.4037 65.3005 15.0148 65.6293C14.3439 66.1976 13.6217 66.438 12.7687 66.454C12.332 66.4619 11.9006 66.6007 11.4631 66.6307C11.0255 66.6608 10.596 66.6935 10.1778 66.6245C9.47069 66.5088 8.73879 66.5211 8.04578 66.2834C7.83982 66.2127 7.59585 66.2436 7.36868 66.2427C5.18829 66.2427 3.00967 66.2427 0.832816 66.2427C-0.00692854 66.2427 -0.0078125 66.2427 -0.0078125 65.4419C-0.0078125 62.0125 -0.0078125 58.5831 -0.0078125 55.1537L0.00102695 44.0806ZM2.37883 43.9798V63.0776C2.37883 63.2756 2.40888 63.4788 2.37264 63.6698C2.29574 64.079 2.51584 64.0878 2.82434 64.0816C3.68264 64.0657 4.54095 64.0816 5.39926 64.0746C5.75814 64.0746 6.23989 64.1868 6.43966 64.0039C6.63943 63.8209 6.51479 63.3339 6.54308 62.9812C6.55848 62.8908 6.58246 62.802 6.61468 62.7161C6.68539 62.7691 6.75876 62.8186 6.82417 62.8778C7.99097 63.9172 9.31512 64.5625 10.9177 64.4688C11.4534 64.437 12.0014 64.4016 12.5159 64.2628C13.2884 64.0542 14.0866 63.7378 14.6205 63.1757C15.2747 62.488 15.874 61.7049 16.2505 60.799C16.2891 60.6833 16.3407 60.5724 16.4043 60.4684C16.4653 60.38 16.5528 60.22 16.6483 60.4684C16.8649 61.0243 17.2582 61.4786 17.5561 61.978C18.1165 62.9167 19.0358 63.3348 19.8853 63.7988C20.5924 64.1859 21.4605 64.3194 22.2719 64.4635C23.2443 64.6341 24.937 64.4122 26.0676 64.0816C27.9813 63.523 29.3664 62.3192 30.3441 60.6054C30.4325 60.4498 30.5209 60.3782 30.3441 60.2518C30.2141 60.1564 30.1178 60.0052 29.9781 59.9354C29.1048 59.4935 28.2244 59.0719 27.3431 58.6494C27.2901 58.6237 27.1734 58.6282 27.1504 58.6618C26.9427 58.9693 26.7774 59.3088 26.544 59.5942C26.0596 60.1891 25.5461 60.7839 24.7761 60.9969C24.1724 61.164 23.5598 61.5635 22.9084 61.118C21.4375 60.9218 20.5642 59.7268 20.4059 58.378C20.3941 58.2241 20.3523 58.074 20.2831 57.9361C20.1514 57.7054 20.1664 57.5746 20.4599 57.5596C20.6243 57.5507 20.7896 57.5596 20.9549 57.5596H28.2845C28.8785 57.5596 29.4734 57.5675 30.0674 57.5596C30.6066 57.5507 30.7463 57.4075 30.7083 56.8525C30.6897 56.5794 30.5253 56.3115 30.5315 56.0437C30.5421 55.2748 30.3193 54.5641 30.154 53.8261C29.9012 52.6956 29.3196 51.7729 28.6655 50.8766C28.1121 50.1183 27.2662 49.7073 26.4654 49.2689C25.7794 48.8941 24.9883 48.7589 24.2405 48.6917C23.3229 48.6095 22.3842 48.5865 21.4481 48.8367C19.5388 49.3458 18.0202 50.3136 17.0284 52.0628C16.9232 52.2502 16.9533 52.6585 16.628 52.5878C16.4689 52.5533 16.3725 52.221 16.2514 52.0212C16.2373 51.9974 16.2611 51.9505 16.2514 51.924C15.7626 50.9597 15.0245 50.1846 14.2069 49.5181C13.5633 48.9931 12.6865 48.7659 11.8936 48.6935C10.1602 48.5361 8.463 48.7509 7.15565 50.1227C7.11264 50.159 7.06615 50.191 7.01687 50.2181C6.98389 50.1669 6.95913 50.1109 6.9435 50.052C6.9329 49.9212 6.9435 49.7868 6.9435 49.656C6.9435 43.9179 6.9435 38.1798 6.9435 32.4418C6.9435 32.1863 6.98063 31.9309 7.00096 31.6754C7.17775 31.9052 7.40846 32.1121 7.52425 32.3702C7.7417 32.8545 8.07583 33.2761 8.29947 33.7331C9.18341 35.5371 10.5093 37.0688 11.3685 38.8905C11.7433 39.6859 12.2268 40.4567 12.7077 41.2018C13.1886 41.9469 13.6588 42.7176 14.0725 43.5113C14.2829 43.9162 14.5604 44.13 15.0572 44.1159C16.2116 44.0823 17.3678 44.1097 18.5231 44.1035C19.0995 44.1035 19.2161 43.9913 19.2241 43.4468C19.2338 42.7539 19.2241 42.0618 19.2241 41.3688C19.2241 35.7957 19.2241 30.2226 19.2241 24.6496C19.2241 24.1192 19.2179 24.1192 18.7105 24.1192C17.5225 24.1192 16.3336 24.1192 15.1447 24.1192C14.5755 24.1192 14.6674 24.1122 14.6674 24.5921C14.6674 27.8559 14.6674 31.1207 14.6674 34.3863C14.6674 34.9793 14.6674 35.5733 14.6621 36.1664C14.6621 36.2353 14.5869 36.3025 14.5463 36.3697C14.4943 36.3292 14.4479 36.2819 14.4084 36.2291C13.8922 35.3214 13.4104 34.3933 12.8562 33.5104C12.4142 32.8033 12.0889 32.0325 11.6496 31.3413C10.9372 30.2206 10.3157 29.0521 9.65544 27.9048C8.99513 26.7576 8.25881 25.6642 7.72579 24.4516C7.68495 24.3461 7.61146 24.2564 7.51604 24.1957C7.42062 24.1349 7.30828 24.1063 7.19543 24.1139C5.67682 24.129 4.1582 24.1237 2.63871 24.1139C2.40888 24.1139 2.37353 24.2218 2.38148 24.4153C2.38944 24.6089 2.38148 24.8113 2.38148 25.0093L2.37883 43.9798ZM33.2956 36.6596C33.2956 39.0018 33.2956 41.3441 33.2903 43.6855C33.2903 43.9586 33.3177 44.0956 33.65 44.0894C34.7726 44.0682 35.8952 44.0894 37.0178 44.0788C37.5093 44.0788 37.6366 43.9382 37.6534 43.4548C37.6605 43.2577 37.6534 43.0588 37.6534 42.8617C37.6534 40.2225 37.6446 37.5841 37.6622 34.9458C37.6622 34.4773 37.6932 33.9682 37.8832 33.5581C38.0363 33.2355 38.2687 32.9569 38.5586 32.7485C39.1773 32.3065 39.842 32.4241 40.5032 32.4073C41.137 32.3914 41.556 32.6901 41.823 33.277C42.1368 33.9655 42.2101 34.114 42.211 34.7C42.211 36.7117 42.2022 38.7234 42.211 40.736C42.2181 41.8461 42.2632 42.9554 42.2906 44.0655L45.6495 44.0814C45.7484 44.0894 45.8477 44.0894 45.9465 44.0814C46.1993 44.0443 46.3532 43.8976 46.3638 43.6395C46.3744 43.4088 46.3638 43.1772 46.3638 42.9465C46.3638 40.2746 46.3788 37.6036 46.3487 34.9316C46.3547 34.4895 46.4551 34.0537 46.6431 33.6535C46.9719 32.8987 47.527 32.3348 48.4658 32.4029C48.6305 32.4161 48.796 32.4161 48.9608 32.4029C49.751 32.333 50.2593 32.706 50.5307 33.4175C50.7649 34.0318 50.9337 34.662 50.9329 35.3302C50.9284 38.1012 50.9329 40.8712 50.924 43.6386C50.924 43.9568 50.9444 44.1035 51.3404 44.0912C52.4957 44.0558 53.6519 44.0814 54.8072 44.0779C55.281 44.0779 55.2889 44.0708 55.2889 43.6121C55.2889 39.9184 55.2889 36.2247 55.2889 32.5301C55.2889 31.2468 54.7824 30.2277 53.6978 29.5497C53.0154 29.1219 52.2782 28.7755 51.419 28.8329C50.9267 28.8665 50.429 28.8435 49.934 28.8382C48.6549 28.8232 47.5642 29.319 46.5962 30.1021C45.8281 30.7253 45.4878 30.7597 45.0396 29.9351C44.8451 29.5762 44.58 29.4331 44.3077 29.2819C43.94 29.0769 43.5122 28.8621 43.1073 28.863C42.2022 28.863 41.274 28.6544 40.3927 28.9849C40.1231 29.0857 39.8562 29 39.5698 29.1573C38.9643 29.4905 38.3199 29.7433 37.8664 30.2992C37.825 30.3398 37.7786 30.3752 37.7285 30.4044C37.6928 30.3546 37.6667 30.2986 37.6516 30.2391C37.6295 30.0424 37.6295 29.8437 37.6516 29.647C37.7215 29.2554 37.5297 29.2227 37.2097 29.228C36.0208 29.2457 34.8319 29.2474 33.643 29.228C33.3097 29.2218 33.2832 29.3606 33.2841 29.6328C33.2956 31.9759 33.2956 34.3182 33.2956 36.6596ZM32.8987 36.7612C32.8987 34.4207 32.8987 32.0802 32.8987 29.7398C32.8987 29.2474 32.8934 29.2404 32.4567 29.2386C31.3011 29.2351 30.1458 29.2351 28.9908 29.2386C28.5488 29.2386 28.5488 29.2474 28.5488 29.7389C28.5488 32.3101 28.5488 34.8812 28.5488 37.4533C28.5568 38.0586 28.5044 38.6632 28.3923 39.2582C28.304 39.716 28.0211 39.9175 27.7736 40.1968C27.5261 40.4761 27.2247 40.7227 26.8013 40.7183C26.3062 40.713 25.8104 40.7369 25.3162 40.7112C24.7399 40.6821 24.4022 40.3435 24.1759 39.762C24.0472 39.4411 23.9821 39.0983 23.9841 38.7526C23.9912 35.7527 23.9912 32.7526 23.9841 29.7521C23.9841 29.2448 23.9779 29.2395 23.4538 29.2386C22.3341 29.2351 21.2121 29.2351 20.0877 29.2386C19.6343 29.2386 19.6281 29.2466 19.6281 29.7256C19.6281 33.4511 19.6219 37.1766 19.636 40.9013C19.6438 41.2444 19.7101 41.5837 19.8323 41.9045C20.3927 43.4256 21.5524 44.1654 23.1081 44.2715C23.8006 44.309 24.4947 44.309 25.1872 44.2715C26.1374 44.2308 26.9639 43.8048 27.7771 43.3602C28.0176 43.2285 28.1263 42.7477 28.4445 42.9448C28.5921 43.0332 28.5479 43.4848 28.5329 43.7694C28.5179 44.054 28.6522 44.0841 28.8865 44.0823C30.1081 44.0744 31.3288 44.0664 32.5495 44.0823C32.8837 44.0876 32.9093 43.9489 32.9084 43.6775C32.8907 41.3768 32.8943 39.069 32.8943 36.7612H32.8987ZM45.6929 64.4767C46.3739 64.467 47.0534 64.408 47.7259 64.3C48.9166 64.0949 49.9685 63.7308 50.9638 62.9963C51.7974 62.3775 52.3171 61.6457 52.5982 60.7035C52.6963 60.3738 52.5743 59.9522 52.7308 59.672C52.9668 59.2486 52.8475 58.9411 52.7379 58.5301C52.6283 58.1191 52.6017 57.7001 52.3843 57.2847C51.9741 56.5033 51.2281 56.1162 50.6252 55.5611C50.2513 55.6036 49.9915 55.3198 49.6759 55.2288C49.1155 55.0679 48.5268 55.022 47.9805 54.7763C47.8709 54.7268 47.7153 54.7895 47.588 54.7657C46.9153 54.641 46.2259 54.5632 45.5806 54.3529C45.1554 54.2141 44.6966 54.0453 44.3767 53.6767C44.1309 53.3939 44.0717 52.5339 44.3501 52.3509C44.8416 52.0204 45.4065 51.6995 45.9943 51.8383C46.3346 51.9187 46.667 51.9611 47.0082 52.0098C47.8391 52.1273 48.5922 52.4773 49.317 52.8804C49.5619 53.0165 49.7899 53.3709 49.9932 53.3479C50.2266 53.3205 50.429 52.9891 50.6367 52.7823C51.2228 52.2015 51.808 51.6208 52.3861 51.0331C52.5319 50.8846 52.6053 50.7741 52.3321 50.6062C51.4942 50.09 50.635 49.6206 49.7024 49.3042C48.5769 48.9207 47.4049 48.6903 46.2179 48.6192C45.0432 48.5485 43.9471 48.8755 42.9164 49.2759C42.089 49.5977 41.2802 50.0997 40.7366 50.9491C40.3724 51.5174 40.2115 52.1176 39.9782 52.7168C39.713 53.3912 39.7563 54.0727 39.8898 54.7091C40.155 55.9341 40.7145 56.5201 41.8707 57.1132C42.8925 57.6374 44.001 57.8848 45.1086 58.1367C45.4109 58.2057 45.7141 58.2675 46.0164 58.3356C46.5892 58.4664 47.1655 58.5689 47.7303 58.7395C48.2952 58.9101 48.6947 59.5916 48.5338 60.1033C48.373 60.6151 47.8567 60.8281 47.4386 61.1065C46.7315 60.9801 46.0942 61.4601 45.3083 61.1507C44.4571 60.8175 43.5263 60.6761 42.7714 60.1104C42.4407 59.8474 42.1293 59.5608 41.8398 59.2531C41.6532 59.0648 41.5206 59.101 41.3562 59.2752C41.0857 59.5633 40.8453 59.9372 40.5085 60.0945C39.9128 60.372 39.614 60.9324 39.1331 61.3072C38.9705 61.4336 39.012 61.5723 39.142 61.7146C39.743 62.3837 40.5032 62.8327 41.2634 63.2853C42.7042 64.1382 44.2785 64.4414 45.6929 64.4767ZM30.9133 56.5369C30.9133 58.8792 30.9133 61.2209 30.9133 63.5619C30.9133 64.0648 30.9187 64.0693 31.4508 64.0702C32.6394 64.0737 33.828 64.0737 35.0166 64.0702C35.4586 64.0702 35.4683 64.0622 35.4683 63.5752C35.4683 60.7716 35.4869 57.9688 35.4586 55.1652C35.4506 54.3768 35.7573 53.8694 36.4698 53.5822C37.2813 53.2542 38.1024 52.9758 38.997 52.9838C39.4867 52.9838 39.6219 52.845 39.6281 52.3589C39.6379 51.5342 39.6387 50.7096 39.6281 49.884C39.6237 49.6003 39.5689 49.3166 39.5397 49.0329C39.1862 49.0532 38.8326 49.0647 38.479 49.0992C38.3623 49.1107 38.2545 49.2061 38.1369 49.2229C37.26 49.3449 36.5096 49.7612 35.7741 50.2155C35.6982 50.272 35.6275 50.3354 35.5629 50.4046C35.5214 50.3226 35.4917 50.2351 35.4745 50.1448C35.4584 49.8799 35.4584 49.6142 35.4745 49.3493C35.4939 49.0894 35.3985 49.017 35.1421 49.0187C33.8551 49.0302 32.5672 49.0346 31.2793 49.0187C30.9664 49.0143 30.9045 49.1221 30.9063 49.4103C30.9178 51.7879 30.9133 54.1629 30.9133 56.5369ZM57.8612 61.6925C57.8612 61.0341 57.8497 60.3747 57.8674 59.7171C57.8745 59.4422 57.8373 59.3087 57.5067 59.3132C56.2215 59.3326 54.9362 59.3247 53.6501 59.3185C53.4247 59.3185 53.2965 59.3353 53.2965 59.6261C53.3118 61.009 53.3118 62.392 53.2965 63.7749C53.2965 64.0808 53.4459 64.0746 53.6589 64.0737C54.9115 64.0737 56.164 64.0737 57.4166 64.0737C57.8585 64.0737 57.8585 64.0657 57.8585 63.5725C57.8638 62.9432 57.8612 62.3183 57.8612 61.6925Z" fill="black"/>
<path d="M2.37841 43.98V24.983C2.37841 24.785 2.38813 24.5861 2.37841 24.389C2.36869 24.1919 2.40581 24.0868 2.63564 24.0876C4.15513 24.0938 5.67374 24.0991 7.19235 24.0876C7.30521 24.08 7.41755 24.1087 7.51297 24.1694C7.60838 24.2301 7.68188 24.3198 7.72272 24.4253C8.25308 25.6379 8.9956 26.7366 9.65236 27.8786C10.3091 29.0205 10.9341 30.1943 11.6465 31.315C12.0885 32.0062 12.4103 32.7787 12.8531 33.4841C13.4073 34.3679 13.8891 35.2951 14.4053 36.2028C14.4448 36.2556 14.4912 36.3029 14.5432 36.3434C14.5839 36.2762 14.6581 36.209 14.659 36.1401C14.6678 35.547 14.6643 34.953 14.6643 34.36C14.6643 31.095 14.6643 27.8302 14.6643 24.5658C14.6643 24.0859 14.5759 24.0921 15.1416 24.0929C16.3305 24.0929 17.5194 24.0929 18.7075 24.0929C19.2148 24.0929 19.2201 24.0982 19.221 24.6233C19.221 30.1958 19.221 35.7689 19.221 41.3425C19.221 42.0355 19.2281 42.7276 19.221 43.4205C19.2131 43.965 19.0964 44.0746 18.5201 44.0772C17.3648 44.0834 16.2086 44.056 15.0541 44.0896C14.5574 44.1038 14.2798 43.8899 14.0694 43.485C13.6557 42.6896 13.1917 41.9303 12.7046 41.1755C12.2176 40.4207 11.7402 39.6605 11.3654 38.8642C10.508 37.0425 9.18211 35.5108 8.2964 33.7068C8.07276 33.2498 7.73863 32.8282 7.52118 32.3439C7.40538 32.0858 7.17644 31.8789 6.99789 31.6491C6.97756 31.9046 6.94043 32.16 6.94043 32.4155C6.9369 38.1535 6.9369 43.8916 6.94043 49.6297C6.94043 49.7623 6.93336 49.8949 6.94043 50.0257C6.95606 50.0846 6.98082 50.1406 7.0138 50.1919C7.06308 50.1647 7.10957 50.1327 7.15258 50.0964C8.45993 48.7246 10.158 48.5098 11.8905 48.6672C12.6861 48.7397 13.5603 48.9668 14.2038 49.4918C15.0214 50.1583 15.7595 50.9334 16.2483 51.8977C16.2616 51.9242 16.2377 51.9711 16.2483 51.9949C16.3694 52.1947 16.4658 52.5253 16.6249 52.5615C16.9502 52.6322 16.9201 52.2239 17.0253 52.0365C18.0136 50.2873 19.5322 49.3195 21.445 48.8104C22.3838 48.5602 23.3199 48.5832 24.2374 48.6654C24.9852 48.7326 25.7763 48.8678 26.4623 49.2426C27.2631 49.6845 28.1091 50.092 28.6624 50.8503C29.3165 51.7466 29.8999 52.6693 30.151 53.7998C30.3163 54.5378 30.539 55.2485 30.5284 56.0174C30.524 56.2826 30.6884 56.5531 30.7052 56.8262C30.7432 57.383 30.6035 57.5262 30.0643 57.5333C29.4703 57.5439 28.8754 57.5333 28.2814 57.5333H20.9527C20.7874 57.5333 20.6221 57.5262 20.4577 57.5333C20.1677 57.5483 20.1527 57.6791 20.2809 57.9098C20.3501 58.0477 20.3919 58.1978 20.4037 58.3517C20.562 59.7032 21.4353 60.8982 22.9062 61.0917C23.5576 61.5337 24.1702 61.1377 24.774 60.9706C25.5456 60.7576 26.0592 60.1628 26.5418 59.5679C26.7752 59.2824 26.9405 58.943 27.1482 58.6355C27.1712 58.6019 27.2879 58.5975 27.3409 58.6231C28.2249 59.0456 29.1026 59.4707 29.976 59.9091C30.1156 59.9789 30.212 60.1301 30.3419 60.2255C30.5187 60.3563 30.4303 60.4279 30.3419 60.5791C29.3643 62.2929 27.9791 63.4959 26.0654 64.0553C24.9348 64.3859 23.2368 64.6078 22.2697 64.4372C21.4548 64.2931 20.5903 64.1596 19.8831 63.7725C19.0336 63.3085 18.1152 62.8886 17.5539 61.9517C17.256 61.4524 16.8627 60.998 16.6461 60.4421C16.5506 60.1973 16.4631 60.3599 16.4021 60.4421C16.3385 60.5461 16.2869 60.657 16.2483 60.7727C15.8718 61.6786 15.276 62.4617 14.6183 63.1494C14.088 63.7115 13.2862 64.0279 12.5137 64.2365C11.9992 64.3753 11.453 64.4133 10.9155 64.4425C9.31293 64.5379 7.98879 63.8927 6.82198 62.8515C6.75657 62.7923 6.6832 62.7428 6.61249 62.6898C6.58027 62.7757 6.55629 62.8645 6.54089 62.9549C6.5126 63.3085 6.62928 63.8034 6.43747 63.9776C6.24565 64.1517 5.75595 64.0465 5.39707 64.0483C4.53876 64.0483 3.68045 64.0394 2.82215 64.0553C2.51365 64.0615 2.29178 64.0554 2.37045 63.6435C2.4067 63.4525 2.37664 63.2493 2.37664 63.0513L2.37841 43.98ZM12.8823 56.5601C12.8443 55.9936 12.8478 55.435 12.7188 54.8596C12.5747 54.2179 12.4094 53.6221 12.1 53.0344C11.8557 52.5541 11.4331 52.1886 10.9226 52.0162C10.6123 51.9066 10.2596 51.9684 9.91136 51.835C9.64618 51.7307 9.23956 51.8906 8.924 52.0117C8.21684 52.2769 7.69267 52.7825 7.3329 53.4392C6.95899 54.126 6.84231 54.9126 6.76188 55.6595C6.62441 56.9235 6.78984 58.202 7.24451 59.3894C7.48031 60.0164 7.92437 60.5435 8.50236 60.8823C8.95405 61.1642 9.54717 61.3975 10.0935 61.2809C10.6397 61.1642 11.2514 60.9477 11.6598 60.5817C12.0685 60.2005 12.3586 59.7095 12.4951 59.1675C12.7258 58.3049 12.9415 57.4564 12.8823 56.5601ZM23.1298 54.7694C23.9254 54.7694 24.713 54.7765 25.5041 54.7694C25.7207 54.7694 26.0769 54.7694 26.1228 54.6607C26.221 54.4406 26.251 54.0871 26.1343 53.8953C25.7861 53.3252 25.5713 52.6799 24.8491 52.3432C24.0429 51.9667 23.5789 51.9304 22.6799 51.9976C22.0824 52.0418 21.613 52.3255 21.1931 52.7047C20.7732 53.0839 20.3375 53.4896 20.3976 54.156C20.4046 54.2329 20.3286 54.3239 20.2791 54.4C20.1297 54.6253 20.1695 54.7668 20.4559 54.7694C21.3522 54.7694 22.2459 54.7694 23.1298 54.7694ZM16.4623 54.9674C15.6614 54.9674 15.5102 55.0443 15.4652 55.6135C15.4404 55.922 15.428 56.3082 15.5889 56.5301C15.7321 56.7263 16.0309 56.4152 16.2687 56.3613C16.4499 56.3206 16.6841 56.302 16.6452 56.6264C16.6329 56.7236 16.6585 56.8271 16.639 56.9216C16.6099 57.0648 16.5922 57.2831 16.5038 57.3229C16.388 57.3742 16.1856 57.3229 16.0618 57.2434C15.878 57.1293 15.771 56.8633 15.4952 56.9535C15.4068 56.9835 15.2574 57.1072 15.2689 57.1594C15.3273 57.4246 15.9319 57.9549 16.1697 57.9292C16.6037 57.8877 17.0138 57.8126 17.2498 57.3388C17.4151 57.0074 17.5415 56.7024 17.3453 56.3666C17.1208 55.9874 16.8335 55.8963 16.3023 55.9485C16.257 55.952 16.2116 55.9447 16.1697 55.9274C16.1278 55.91 16.0905 55.883 16.0609 55.8486C16.03 55.7859 16.076 55.6648 16.1219 55.5896C16.312 55.2803 16.6293 55.3696 16.9122 55.3616C17.0748 55.3572 17.2719 55.3837 17.2251 55.1371C17.2109 55.0655 17.0545 54.9895 16.9537 54.9718C16.7912 54.9568 16.6277 54.9553 16.4649 54.9674H16.4623ZM4.97808 45.1953C4.79511 45.2961 4.55998 45.3544 4.44064 45.5056C4.17546 45.8423 3.98188 46.2392 3.72554 46.5857C3.55494 46.8155 3.20666 47.0099 3.39583 47.3122C3.48422 47.4492 3.86255 47.4607 4.10298 47.4351C4.52992 47.3873 4.58561 47.5809 4.58119 47.9353C4.58119 48.0352 4.80041 48.2076 4.92946 48.2173C5.05852 48.227 5.21763 48.09 5.30514 47.9733C5.37055 47.8849 5.30514 47.6993 5.36613 47.6101C5.44392 47.5031 5.63131 47.4748 5.70999 47.3679C5.75153 47.3104 5.66579 47.0656 5.6375 47.0656C5.43154 47.0656 5.3458 46.9958 5.35199 46.7801C5.36436 46.3859 5.3405 45.9899 5.36083 45.5966C5.36878 45.3394 5.29011 45.2236 4.97808 45.1953ZM4.55821 26.7781C4.5706 26.5827 4.5706 26.3867 4.55821 26.1912C4.51932 25.8872 4.72793 25.5098 4.41855 25.3074C4.33015 25.2526 4.02696 25.5487 3.81481 25.6706C3.75141 25.6876 3.68464 25.6876 3.62123 25.6706C3.38964 25.6503 3.37108 25.7864 3.36842 25.972C3.36577 26.1577 3.40201 26.2894 3.6283 26.2655C3.85459 26.2416 3.98895 26.2867 3.97481 26.5713C3.95094 27.0592 3.9695 27.5498 3.96774 28.0394C3.96774 28.3046 4.16751 28.2577 4.30894 28.2348C4.39733 28.2197 4.5476 28.1163 4.55114 28.0465C4.56705 27.6267 4.55821 27.2024 4.55821 26.7781Z" fill="white"/>
<path d="M33.2953 36.6595C33.2953 34.3181 33.2953 31.975 33.29 29.6345C33.29 29.3623 33.3157 29.2235 33.6489 29.2297C34.8378 29.25 36.0267 29.2482 37.2156 29.2297C37.5383 29.2244 37.7301 29.2571 37.6576 29.6486C37.6355 29.8454 37.6355 30.0441 37.6576 30.2408C37.6726 30.3003 37.6987 30.3563 37.7345 30.4061C37.7846 30.3768 37.8309 30.3415 37.8724 30.3009C38.3259 29.745 38.9702 29.4922 39.5757 29.159C39.8621 29.0016 40.1291 29.0874 40.3987 28.9866C41.2826 28.6561 42.2081 28.8664 43.1133 28.8646C43.5155 28.8646 43.946 29.0785 44.3137 29.2836C44.5859 29.4347 44.8511 29.5779 45.0456 29.9368C45.4937 30.7614 45.8341 30.727 46.6022 30.1038C47.5745 29.3207 48.6609 28.8249 49.94 28.8399C50.435 28.8452 50.9326 28.8682 51.425 28.8346C52.2842 28.7771 53.0214 29.1236 53.7038 29.5514C54.7848 30.2293 55.2949 31.2484 55.2949 32.5318C55.2878 36.2264 55.2949 39.9201 55.2949 43.6138C55.2949 44.0725 55.2869 44.0778 54.8131 44.0796C53.6578 44.0796 52.5016 44.0575 51.3463 44.0928C50.9503 44.1052 50.9291 43.9585 50.93 43.6403C50.9415 40.8694 50.93 38.0993 50.9388 35.3319C50.9388 34.6637 50.7709 34.0335 50.5366 33.4192C50.2653 32.7077 49.757 32.3347 48.9667 32.4045C48.802 32.4178 48.6365 32.4178 48.4717 32.4045C47.5303 32.3365 46.9779 32.9004 46.649 33.6552C46.4651 34.0545 46.3681 34.4884 46.3644 34.928C46.3945 37.5999 46.3794 40.271 46.3794 42.9429C46.3794 43.1736 46.3874 43.4052 46.3794 43.6359C46.3688 43.901 46.215 44.0433 45.9622 44.0778C45.8634 44.0858 45.7641 44.0858 45.6652 44.0778L42.3062 44.0619C42.2788 42.9518 42.2338 41.8425 42.2267 40.7324C42.2143 38.7198 42.2267 36.7081 42.2267 34.6964C42.2267 34.1104 42.1524 33.9619 41.8386 33.2734C41.5735 32.6865 41.1527 32.3895 40.5189 32.4037C39.8577 32.4205 39.193 32.3011 38.5742 32.7448C38.2843 32.9533 38.052 33.2319 37.8989 33.5545C37.7089 33.9646 37.6815 34.4737 37.6779 34.9421C37.6602 37.5805 37.6691 40.2188 37.6691 42.8581C37.6691 43.0552 37.6753 43.254 37.6691 43.4512C37.6523 43.9346 37.525 44.0699 37.0335 44.0752C35.9109 44.084 34.7883 44.0646 33.6657 44.0858C33.3334 44.092 33.3042 43.955 33.3059 43.6818C33.2953 41.3431 33.2953 39.0017 33.2953 36.6595ZM35.5406 32.9976C35.606 32.9892 35.6722 32.9892 35.7377 32.9976C36.1796 33.1178 36.4448 32.8102 36.6128 32.5203C36.6949 32.3787 36.7203 32.2112 36.6841 32.0515C36.6479 31.8919 36.5526 31.7518 36.4174 31.6594C36.2265 31.5127 36.291 31.389 36.3715 31.1742C36.474 30.9037 36.5147 30.4865 36.3715 30.2709C36.0692 29.8139 34.9881 29.9836 34.7229 30.5007C34.6584 30.6271 34.768 30.8419 34.7972 31.016C34.9589 30.9638 35.2232 31.1521 35.271 30.8392C35.3328 30.4477 35.6175 30.6059 35.7881 30.6527C35.9587 30.6996 35.8924 30.9771 35.6272 31.2104C35.4115 31.4005 35.4133 31.6126 35.6325 31.8044C35.9366 32.0696 35.9463 32.1579 35.7209 32.4505C35.6272 32.5716 35.5379 32.6273 35.4416 32.462C35.3925 32.3507 35.3364 32.2427 35.2736 32.1385C35.0809 31.8901 34.7609 31.9476 34.5797 32.0386C34.3278 32.165 34.6389 32.3427 34.661 32.4956C34.7415 33.0842 35.1516 32.995 35.5361 32.9976H35.5406Z" fill="white"/>
<path d="M32.8943 36.7614C32.8943 39.0691 32.8943 41.3769 32.8996 43.6847C32.8996 43.9561 32.8748 44.0948 32.5407 44.0895C31.32 44.0692 30.0993 44.0772 28.8777 44.0895C28.6461 44.0895 28.5152 44.0621 28.5241 43.7766C28.5329 43.4911 28.5807 43.0439 28.4357 42.952C28.1175 42.7549 28.0087 43.2357 27.7683 43.3674C26.9551 43.8093 26.1286 44.238 25.1784 44.2787C24.4859 44.3162 23.7918 44.3162 23.0993 44.2787C21.5436 44.1726 20.3839 43.4328 19.8234 41.9117C19.7013 41.5909 19.635 41.2516 19.6272 40.9085C19.6131 37.1839 19.6175 33.4583 19.6193 29.7328C19.6193 29.2538 19.6254 29.2476 20.0789 29.2458C21.1986 29.2423 22.3206 29.2423 23.445 29.2458C23.9709 29.2458 23.9753 29.252 23.9753 29.7593C23.9753 32.7592 23.9753 35.7593 23.9753 38.7598C23.9732 39.1055 24.0384 39.4483 24.1671 39.7692C24.3934 40.3508 24.7311 40.6893 25.3074 40.7184C25.8015 40.7441 26.2974 40.7184 26.7924 40.7255C27.2141 40.7299 27.5084 40.4931 27.7648 40.204C28.0211 39.915 28.289 39.7232 28.3835 39.2654C28.4956 38.6704 28.548 38.0658 28.54 37.4605C28.54 34.8884 28.54 32.3173 28.54 29.7461C28.54 29.2547 28.5453 29.2476 28.982 29.2458C30.137 29.2423 31.2923 29.2423 32.4479 29.2458C32.8899 29.2458 32.8899 29.2547 32.8899 29.747C32.8952 32.0827 32.8966 34.4209 32.8943 36.7614ZM21.7805 32.9978C22.0457 32.9978 22.3109 33.0076 22.5672 32.9917C22.6432 32.9872 22.7617 32.9218 22.7767 32.8635C22.7961 32.7901 22.7387 32.6867 22.6945 32.6107C22.5301 32.3199 22.2454 32.4198 21.9953 32.4012C21.9362 32.388 21.8795 32.3656 21.8273 32.3349C21.8489 32.2857 21.8765 32.2394 21.9095 32.1971C22.1146 31.9858 22.3984 31.8126 22.5142 31.5616C22.6415 31.2858 22.9393 31.041 22.7122 30.6255C22.3064 29.8804 21.4967 29.846 20.8842 30.4558C20.6932 30.645 20.8029 31.0533 21.0831 31.1859C21.3394 31.307 21.358 31.1108 21.4366 30.9137C21.4897 30.7784 21.7319 30.7175 21.8892 30.6229C21.9255 30.7997 22.0024 30.987 21.9838 31.1612C21.9697 31.299 21.8565 31.4413 21.754 31.5509C21.4888 31.8391 21.1865 32.0981 20.931 32.395C20.8441 32.5232 20.8035 32.6773 20.8161 32.8317C20.8285 33.088 21.0504 32.9846 21.1918 32.9943C21.3871 33.0085 21.5843 32.9978 21.7805 32.9978Z" fill="white"/>
<path d="M45.6927 64.4767C44.2784 64.4413 42.7041 64.1364 41.2677 63.2817C40.5075 62.8291 39.7473 62.3801 39.1462 61.711C39.0163 61.5661 38.9747 61.43 39.1374 61.3036C39.6182 60.9288 39.917 60.3684 40.5128 60.0909C40.8495 59.9336 41.09 59.5606 41.3605 59.2716C41.5249 59.0948 41.6575 59.0612 41.844 59.2495C42.1335 59.5573 42.4449 59.8438 42.7757 60.1068C43.5305 60.6725 44.4613 60.8139 45.3126 61.1471C46.0984 61.4538 46.7384 60.9765 47.4429 61.1029C47.861 60.8245 48.3745 60.6221 48.5381 60.0997C48.7016 59.5774 48.295 58.9074 47.7346 58.7359C47.1741 58.5645 46.5934 58.4628 46.0206 58.332C45.7183 58.264 45.4151 58.2021 45.1128 58.1331C44.0052 57.8812 42.8968 57.6337 41.8749 57.1096C40.7187 56.5165 40.1557 55.9305 39.894 54.7055C39.7588 54.0691 39.7172 53.3876 39.9824 52.7132C40.2158 52.1131 40.3766 51.513 40.7408 50.9455C41.2844 50.0961 42.0933 49.5941 42.9206 49.2723C43.9513 48.8719 45.0474 48.5449 46.2221 48.6156C47.4091 48.6867 48.5811 48.9171 49.7066 49.3006C50.6392 49.6171 51.4984 50.0864 52.3364 50.6026C52.6095 50.7705 52.5361 50.881 52.3903 51.0295C51.8122 51.6172 51.227 52.1979 50.641 52.7787C50.4332 52.9855 50.2308 53.3169 49.9975 53.3443C49.7942 53.3673 49.5661 53.0129 49.3212 52.8768C48.5964 52.4737 47.8433 52.1237 47.0124 52.0062C46.6712 51.9575 46.3388 51.9178 45.9985 51.8347C45.4107 51.6959 44.8494 52.0168 44.3544 52.3473C44.0759 52.5347 44.1352 53.3947 44.3809 53.6731C44.7035 54.0417 45.1597 54.2105 45.5848 54.3493C46.2301 54.5597 46.9196 54.6374 47.5923 54.7621C47.7195 54.7859 47.8751 54.7232 47.9847 54.7727C48.5275 55.0184 49.1197 55.0643 49.6801 55.2252C49.9957 55.3136 50.2556 55.6 50.6295 55.5575C51.2323 56.1126 51.9784 56.4997 52.3885 57.2811C52.606 57.6965 52.6307 58.1102 52.7421 58.5265C52.8535 58.9428 52.971 59.245 52.735 59.6684C52.5786 59.9486 52.7006 60.3702 52.6024 60.6999C52.3213 61.6421 51.8016 62.3792 50.968 62.9927C49.9727 63.7271 48.9208 64.0913 47.7301 64.2964C47.0563 64.4057 46.3753 64.466 45.6927 64.4767ZM42.2515 51.9982C41.9553 51.9879 41.6588 51.9926 41.3631 52.0123C41.3048 52.0185 41.2252 52.205 41.2279 52.3067C41.2305 52.4083 41.3163 52.5718 41.3861 52.5789C41.646 52.6107 41.9165 52.5789 42.1755 52.5975C42.2541 52.6019 42.3752 52.6611 42.3938 52.7203C42.4003 52.7656 42.3965 52.8117 42.3827 52.8553C42.3689 52.8989 42.3455 52.9389 42.3142 52.9722C41.8528 53.4195 41.7308 54.0523 41.4303 54.5844C41.3764 54.6772 41.3269 54.915 41.5806 54.9689C41.8935 55.0343 42.1887 54.9441 42.2082 54.7488C42.259 54.0615 42.5257 53.4079 42.9701 52.8812C43.1107 52.7159 43.3812 52.3818 43.1805 52.1131C43.0868 51.9885 42.7686 52.0247 42.5511 52C42.4514 51.9935 42.3513 51.9929 42.2515 51.9982Z" fill="white"/>
<path d="M30.9134 56.5368C30.9134 54.1627 30.9178 51.7877 30.9072 49.4137C30.9072 49.1255 30.9673 49.0177 31.2803 49.0221C32.5682 49.0398 33.8561 49.0354 35.1431 49.0221C35.3994 49.0221 35.4967 49.0928 35.4754 49.3527C35.4593 49.6176 35.4593 49.8832 35.4754 50.1482C35.4926 50.2385 35.5224 50.3259 35.5638 50.408C35.6284 50.3387 35.6991 50.2754 35.7751 50.2189C36.5105 49.7646 37.261 49.3483 38.1379 49.2263C38.2554 49.2095 38.3633 49.114 38.48 49.1025C38.8335 49.0681 39.1871 49.0566 39.5407 49.0362C39.5716 49.32 39.6291 49.6037 39.6291 49.8874C39.6415 50.7121 39.6406 51.5367 39.6291 52.3623C39.6229 52.8484 39.4876 52.9907 38.9979 52.9871C38.1034 52.9792 37.2822 53.2576 36.4708 53.5855C35.7583 53.8728 35.4516 54.381 35.4595 55.1685C35.4878 57.9722 35.471 60.7749 35.4692 63.5786C35.4692 64.0656 35.4639 64.0718 35.0176 64.0735C33.8295 64.0771 32.6409 64.0771 31.4517 64.0735C30.9214 64.0735 30.9143 64.0682 30.9143 63.5653C30.9108 61.2219 30.9105 58.879 30.9134 56.5368ZM33.3884 54.9458C32.9535 54.8733 32.6371 55.051 32.3772 55.3824C32.0307 55.8244 32.1527 56.3459 32.0926 56.8417C32.0325 57.3376 32.4241 57.5064 32.6592 57.7936C32.8943 58.0809 33.2143 57.9244 33.4866 57.9191C33.7951 57.913 34.4156 57.0644 34.2653 56.8629C34.0885 56.6243 34.1053 56.2248 33.7084 56.1479C33.4636 56.1001 33.2302 55.7333 32.9765 56.1479C32.8881 56.1551 32.8005 56.1271 32.7326 56.0701C32.6928 56.017 32.7131 55.888 32.7511 55.8146C32.7891 55.7413 32.8961 55.6812 32.9509 55.6016C33.1224 55.355 33.2718 55.3798 33.4433 55.6061C33.6147 55.8323 33.9232 55.85 34.0134 55.6847C34.093 55.5389 33.9542 55.2286 33.8366 55.0395C33.7765 54.952 33.5405 54.9759 33.384 54.9458H33.3884Z" fill="white"/>
<path d="M57.8609 61.6925C57.8609 62.3183 57.8609 62.9432 57.8609 63.5689C57.8609 64.0621 57.8547 64.0692 57.4189 64.0701C56.1664 64.0701 54.9139 64.0701 53.6613 64.0701C53.4483 64.0701 53.2954 64.0772 53.2989 63.7713C53.3166 62.389 53.3166 61.006 53.2989 59.6225C53.2989 59.3317 53.4262 59.314 53.6525 59.3149C54.9386 59.3211 56.2239 59.329 57.5091 59.3096C57.8397 59.3096 57.8768 59.4386 57.8698 59.7135C57.8494 60.3746 57.8609 61.034 57.8609 61.6925ZM55.9162 60.311C55.6237 60.311 55.5238 60.3216 55.4265 60.311C55.057 60.2624 54.9253 60.5868 54.7433 60.7883C54.6858 60.8528 54.8316 61.1056 54.89 61.2691C54.9695 61.483 55.1366 61.643 54.8343 61.8878C54.532 62.1326 54.6283 62.5436 54.7813 62.8654C54.9103 63.1367 55.6855 63.3701 55.9843 63.2781C56.4828 63.1235 56.6826 62.8221 56.6782 62.2944C56.6782 62.084 56.6508 61.9117 56.4643 61.7862C56.3184 61.6872 56.2831 61.6094 56.4289 61.4326C56.802 60.9686 56.7825 60.8334 56.3405 60.4931C56.2118 60.4063 56.0678 60.3445 55.9162 60.311Z" fill="white"/>
<path d="M12.8827 56.5601C12.9419 57.4564 12.7262 58.3049 12.5008 59.164C12.3643 59.706 12.0742 60.197 11.6655 60.5782C11.2571 60.9441 10.6525 61.1589 10.0992 61.2774C9.54582 61.3958 8.95888 61.1607 8.50807 60.8787C7.93009 60.5399 7.48603 60.0129 7.25022 59.3859C6.79484 58.1977 6.62909 56.9182 6.76671 55.6533C6.84715 54.9064 6.96383 54.1198 7.33773 53.433C7.69131 52.7763 8.21549 52.2663 8.92883 52.0056C9.2444 51.8889 9.64747 51.7289 9.91619 51.8288C10.2645 51.9622 10.6172 51.9004 10.9274 52.01C11.4379 52.1825 11.8605 52.548 12.1048 53.0282C12.4116 53.6142 12.5769 54.2117 12.7236 54.8534C12.8482 55.435 12.8447 55.9936 12.8827 56.5601Z" fill="black"/>
<path d="M23.1306 54.7693C22.2405 54.7693 21.3504 54.7693 20.4603 54.7693C20.1739 54.7693 20.1341 54.6253 20.2835 54.3999C20.333 54.3239 20.409 54.2328 20.4019 54.1559C20.34 53.4895 20.7696 53.0953 21.1975 52.7046C21.6253 52.3139 22.0867 52.039 22.6843 51.9975C23.5832 51.9303 24.0473 51.9666 24.8534 52.3431C25.5756 52.6799 25.7904 53.3251 26.1387 53.8952C26.2554 54.087 26.2271 54.4405 26.1272 54.6606C26.0795 54.7693 25.7232 54.7658 25.5084 54.7693C24.7164 54.7764 23.9262 54.7693 23.1306 54.7693Z" fill="black"/>
<path d="M16.4654 54.967C16.6292 54.9556 16.7936 54.958 16.9569 54.9741C17.0577 54.9918 17.2141 55.0678 17.2283 55.1394C17.2751 55.386 17.078 55.3595 16.9154 55.3639C16.6325 55.3718 16.3152 55.2826 16.1251 55.5919C16.0792 55.6671 16.0367 55.7881 16.0641 55.8509C16.0937 55.8853 16.1309 55.9123 16.1729 55.9296C16.2148 55.947 16.2602 55.9542 16.3055 55.9508C16.8358 55.8986 17.124 55.9897 17.3485 56.3688C17.5447 56.7021 17.4183 57.007 17.253 57.3411C17.017 57.8149 16.6069 57.89 16.1729 57.9315C15.9351 57.9545 15.3305 57.4295 15.2721 57.1617C15.2606 57.1095 15.4056 56.9849 15.4984 56.9557C15.7742 56.8674 15.8812 57.1325 16.065 57.2457C16.1888 57.3217 16.3912 57.3765 16.507 57.3252C16.5954 57.2854 16.6131 57.0671 16.6422 56.9239C16.6617 56.8293 16.636 56.7259 16.6484 56.6287C16.6873 56.3043 16.4531 56.3229 16.2719 56.3635C16.035 56.4175 15.7353 56.7286 15.5921 56.5324C15.4312 56.3105 15.4436 55.9243 15.4684 55.6158C15.5134 55.0439 15.6646 54.9661 16.4654 54.967Z" fill="black"/>
<path d="M4.97833 45.1953C5.29036 45.2245 5.36903 45.3394 5.35666 45.5966C5.33633 45.9899 5.35666 46.3859 5.34782 46.7801C5.34163 46.9958 5.42737 47.0647 5.63333 47.0656C5.66162 47.0656 5.74736 47.3104 5.70581 47.3679C5.62626 47.4748 5.44063 47.5031 5.36196 47.61C5.29743 47.6984 5.36638 47.8867 5.30097 47.9733C5.21258 48.09 5.04728 48.227 4.92529 48.2173C4.80331 48.2075 4.57614 48.0352 4.57702 47.9353C4.57702 47.5818 4.52575 47.3873 4.09881 47.435C3.8628 47.4607 3.48005 47.4492 3.39166 47.3122C3.20249 47.0099 3.55076 46.8154 3.72137 46.5856C3.97771 46.2392 4.16952 45.8423 4.43647 45.5056C4.56023 45.3544 4.79535 45.2961 4.97833 45.1953ZM4.55846 46.6979C4.5654 46.6017 4.5654 46.5051 4.55846 46.4089C4.53282 46.2922 4.49393 46.1791 4.46122 46.0633C4.42911 46.1779 4.38279 46.2881 4.32333 46.3912C4.22786 46.5185 4.07141 46.6069 3.99892 46.7447C3.9618 46.8137 4.04224 47.0355 4.08732 47.0399C4.2388 47.0648 4.39423 47.0387 4.52929 46.9657C4.59028 46.9171 4.55581 46.7262 4.55846 46.6952V46.6979Z" fill="black"/>
<path d="M4.55893 26.7781C4.55893 27.2024 4.57042 27.6266 4.54744 28.05C4.54744 28.1198 4.39805 28.2268 4.30524 28.2383C4.16381 28.2613 3.96315 28.3063 3.96404 28.0429C3.96404 27.5533 3.94724 27.0627 3.97111 26.5748C3.98525 26.2902 3.85266 26.2443 3.6246 26.269C3.39655 26.2938 3.35942 26.1691 3.36472 25.9756C3.37003 25.782 3.38594 25.6538 3.61753 25.6742C3.68094 25.6912 3.74771 25.6912 3.81111 25.6742C4.02326 25.5522 4.33087 25.2561 4.41485 25.3109C4.72423 25.5133 4.51562 25.8907 4.55451 26.1948C4.56822 26.3889 4.5697 26.5838 4.55893 26.7781Z" fill="black"/>
<path d="M35.5368 32.9977C35.1549 32.9977 34.7413 33.0861 34.6529 32.5019C34.6308 32.3489 34.3196 32.1713 34.5715 32.0449C34.7483 31.9565 35.0727 31.8964 35.2654 32.1448C35.3282 32.2489 35.3843 32.357 35.4334 32.4683C35.5297 32.6309 35.619 32.5779 35.7127 32.4568C35.939 32.1642 35.9293 32.0767 35.6243 31.8107C35.4051 31.6189 35.4033 31.4067 35.619 31.2167C35.8842 30.9834 35.9629 30.7094 35.7799 30.659C35.5969 30.6086 35.3247 30.4539 35.2628 30.8455C35.2151 31.1548 34.9508 30.9666 34.789 31.0223C34.7598 30.8455 34.6502 30.6333 34.7147 30.507C34.9799 29.9899 36.061 29.8202 36.3633 30.2771C36.5056 30.4928 36.465 30.91 36.3633 31.1805C36.2829 31.3952 36.2183 31.519 36.4093 31.6657C36.5445 31.7581 36.6397 31.8981 36.6759 32.0578C36.7122 32.2175 36.6867 32.3849 36.6046 32.5266C36.4375 32.8165 36.1732 33.1241 35.7295 33.0039C35.6658 32.9938 35.6011 32.9917 35.5368 32.9977Z" fill="black"/>
<path d="M21.7809 32.9978C21.5847 32.9978 21.3876 33.0084 21.1913 32.9978C21.0499 32.9881 20.828 33.0915 20.8157 32.8352C20.8031 32.6808 20.8436 32.5268 20.9306 32.3986C21.186 32.1016 21.4866 31.8426 21.7535 31.5545C21.8561 31.4449 21.9692 31.3026 21.9833 31.1647C22.0019 30.9879 21.925 30.8111 21.8888 30.6264C21.7314 30.721 21.4892 30.782 21.4362 30.9172C21.3584 31.1143 21.3398 31.3105 21.0826 31.1894C20.8024 31.0569 20.6928 30.6485 20.8837 30.4594C21.4963 29.8495 22.306 29.884 22.7117 30.6291C22.9389 31.0445 22.641 31.2893 22.5137 31.5651C22.3979 31.8161 22.1142 31.9893 21.9091 32.2006C21.8761 32.2429 21.8485 32.2893 21.8269 32.3385C21.8791 32.3691 21.9358 32.3915 21.9948 32.4048C22.245 32.4233 22.5252 32.3234 22.694 32.6142C22.7382 32.692 22.7957 32.791 22.7762 32.867C22.7612 32.9254 22.6428 32.9908 22.5667 32.9952C22.3069 33.0076 22.0435 32.9978 21.7809 32.9978Z" fill="black"/>
<path d="M42.2518 51.9982C42.3504 51.9925 42.4493 51.9925 42.5479 51.9982C42.7654 52.0256 43.0836 51.9867 43.1773 52.1114C43.378 52.3765 43.1075 52.7142 42.9669 52.8794C42.5225 53.4061 42.2558 54.0598 42.205 54.7471C42.1855 54.9424 41.8903 55.0325 41.5774 54.9671C41.3237 54.9132 41.3732 54.6755 41.4271 54.5827C41.7312 54.0523 41.8532 53.4177 42.311 52.9705C42.3423 52.9371 42.3657 52.8972 42.3795 52.8536C42.3933 52.81 42.3971 52.7638 42.3906 52.7186C42.372 52.6594 42.2509 52.6001 42.1723 52.5957C41.9071 52.5807 41.6419 52.609 41.3829 52.5772C41.3166 52.5692 41.2273 52.4004 41.2247 52.3049C41.222 52.2095 41.3016 52.0168 41.3599 52.0106C41.6568 51.9913 41.9545 51.9872 42.2518 51.9982Z" fill="black"/>
<path d="M33.3839 54.9457C33.5386 54.9731 33.7746 54.9457 33.8303 55.0341C33.9496 55.2233 34.0884 55.5335 34.007 55.6793C33.9187 55.8446 33.5996 55.8155 33.4369 55.6007C33.2743 55.3859 33.116 55.3497 32.9446 55.5963C32.8897 55.6758 32.7872 55.7262 32.7448 55.8093C32.7024 55.8924 32.6864 56.0117 32.7262 56.0647C32.7941 56.1218 32.8818 56.1497 32.9702 56.1425C33.2239 55.7297 33.4572 56.0965 33.7021 56.1425C34.099 56.2194 34.0822 56.6189 34.259 56.8575C34.4092 57.0591 33.7887 57.9076 33.4802 57.9138C33.208 57.9191 32.8862 58.072 32.6529 57.7883C32.4195 57.5045 32.0261 57.3331 32.0862 56.8363C32.1464 56.3396 32.0244 55.819 32.3709 55.3771C32.6343 55.0536 32.9507 54.8759 33.3839 54.9457ZM33.4873 56.9901C33.4714 56.786 33.5863 56.5287 33.1868 56.5358C32.8871 56.5411 32.8774 56.6861 32.8924 56.8973C32.9074 57.1086 32.7934 57.3569 33.1929 57.3516C33.497 57.3499 33.5059 57.2058 33.4891 56.9928L33.4873 56.9901Z" fill="black"/>
<path d="M55.9162 60.3108C56.0674 60.3427 56.2113 60.4027 56.3404 60.4876C56.7824 60.8279 56.8019 60.9631 56.4288 61.4271C56.283 61.6039 56.3183 61.6843 56.4642 61.7807C56.6507 61.9062 56.6763 62.0786 56.6781 62.2889C56.6825 62.8192 56.4828 63.118 55.9842 63.2727C55.6854 63.3611 54.9102 63.1312 54.7812 62.8599C54.6283 62.5382 54.5372 62.1201 54.8342 61.8823C55.1312 61.6446 54.9695 61.4793 54.8899 61.2636C54.8298 61.1001 54.6857 60.8473 54.7432 60.7828C54.9253 60.5813 55.057 60.2525 55.4265 60.3055C55.5237 60.3214 55.6236 60.3108 55.9162 60.3108ZM56.1707 62.2421C55.9568 62.0971 55.7968 61.9044 55.6598 61.9195C55.5228 61.9345 55.3619 62.1387 55.2983 62.2951C55.2346 62.4515 55.6165 62.7618 55.75 62.6769C55.8985 62.5824 56.0037 62.4206 56.1707 62.2421ZM55.8799 61.0047C55.8569 60.9605 55.8101 60.7395 55.7252 60.7271C55.3999 60.6644 55.4972 60.9357 55.4848 61.1089C55.4719 61.2053 55.4737 61.303 55.4901 61.3989C55.5036 61.426 55.5239 61.4492 55.549 61.4662C55.5741 61.4832 55.6031 61.4935 55.6333 61.4961C55.7217 61.4855 55.8366 61.4537 55.8702 61.3927C55.9109 61.3096 55.8799 61.1982 55.8799 61.0002V61.0047Z" fill="black"/>
<path d="M4.55843 46.6949C4.55843 46.7249 4.59025 46.9167 4.52484 46.9601C4.38979 47.033 4.23435 47.0591 4.08287 47.0343C4.03868 47.0343 3.95824 46.808 3.99448 46.7391C4.06696 46.6039 4.22342 46.5155 4.31888 46.3855C4.37834 46.2824 4.42467 46.1722 4.45678 46.0576C4.48949 46.1734 4.52838 46.2865 4.55401 46.4032C4.56256 46.5002 4.56404 46.5977 4.55843 46.6949Z" fill="white"/>
<path d="M33.4891 56.9921C33.5059 57.206 33.497 57.3501 33.1947 57.3545C32.7952 57.3598 32.9101 57.1044 32.8942 56.9002C32.8783 56.696 32.8889 56.5467 33.1885 56.5387C33.5881 56.5316 33.4723 56.7889 33.4891 56.9921Z" fill="white"/>
<path d="M56.171 62.2425C56.004 62.4192 55.8988 62.5828 55.7503 62.6773C55.6168 62.7657 55.2376 62.4484 55.2986 62.2955C55.3596 62.1426 55.5231 61.9358 55.6601 61.9199C55.7971 61.904 55.9571 62.0975 56.171 62.2425Z" fill="white"/>
<path d="M55.8802 61.0006C55.8802 61.1986 55.9111 61.3135 55.8704 61.3886C55.8368 61.4496 55.7184 61.4814 55.6335 61.492C55.6033 61.4894 55.5743 61.4791 55.5492 61.4621C55.5242 61.4451 55.5039 61.4219 55.4903 61.3948C55.474 61.299 55.4722 61.2012 55.485 61.1049C55.4974 60.9281 55.3966 60.6629 55.7255 60.723C55.8103 60.7398 55.8572 60.9564 55.8802 61.0006Z" fill="white"/>
<path d="M80.623 23.4463H87.0979L91.0244 30.3458C92.3954 27.9072 93.6506 25.6754 94.8969 23.4569H101.107C100.527 24.4831 100.021 25.3952 99.4996 26.2977C97.8608 29.126 96.2432 31.9721 94.5566 34.7749C94.1224 35.4808 93.907 36.2995 93.9379 37.1277C93.9706 38.9494 93.9476 40.7728 93.9476 42.689H87.981C87.981 40.8285 87.981 39.0095 87.981 37.1905C87.981 36.5815 87.9668 36.0043 87.6274 35.4333C85.3627 31.6203 83.1326 27.7879 80.8847 23.9651C80.8361 23.882 80.7141 23.8405 80.6266 23.7804V23.4472L80.623 23.4463Z" fill="white"/>
<path d="M147.219 13.7788C148.161 13.7719 149.07 14.1302 149.754 14.7784C149.758 14.782 149.762 14.7858 149.765 14.7899C151.151 16.1351 151.179 18.2096 149.858 19.5434C148.45 20.9655 146.026 20.9363 144.637 19.4806C143.316 18.0973 143.441 15.893 144.878 14.5804L144.887 14.5725C145.477 14.0532 146.239 13.7699 147.025 13.777H147.219V13.7788Z" fill="white"/>
<path d="M109.837 23.0775C113.79 23.1712 116.946 24.7737 118.968 28.2164C121.509 32.5473 120.255 38.0141 116.166 40.9441C111.886 44.0138 105.881 43.555 102.251 39.8834C96.9781 34.5466 99.3903 25.6576 106.702 23.5036C107.719 23.2039 108.759 23.0077 109.837 23.0784V23.0775ZM109.826 37.7798C112.279 37.7798 114.358 35.5551 114.334 32.9495C114.309 30.4207 112.278 28.2332 109.903 28.1766C107.487 28.1191 105.338 30.3571 105.314 32.9565C105.289 35.556 107.369 37.7745 109.829 37.7789L109.826 37.7798Z" fill="white"/>
<path d="M88.0469 66.3292V47.577H93.2409L97.1983 52.9686L101.11 47.5381H105.808C106.17 48.7852 106.305 62.0627 105.999 66.3645C104.424 66.5413 102.836 66.4582 101.107 66.4096V54.6037L100.847 54.5154L97.2858 59.5879C95.8088 57.9969 94.8223 56.2062 93.3514 54.4791V66.323H88.0478L88.0469 66.3292Z" fill="white"/>
<path d="M155.934 23.4491H161.401V31.6753C162.918 31.982 164.332 31.7743 165.871 31.8291V23.5207H171.47V42.6812H165.92V37.0395H161.537V42.66H155.934V23.4482V23.4491Z" fill="white"/>
<path d="M122.048 23.4253H127.55C127.919 23.8964 127.748 24.4152 127.751 24.8943C127.768 28.0594 127.759 31.2254 127.761 34.3915C127.761 34.8334 127.738 35.2851 127.796 35.7226C127.999 37.2437 128.892 38.0392 130.36 38.0463C131.827 38.0533 132.746 37.2861 132.844 35.7102C132.957 33.8841 132.908 32.0483 132.915 30.2161C132.924 28.0064 132.915 25.7914 132.915 23.4872H138.739V29.6963C138.739 31.3624 138.733 33.0285 138.739 34.6946C138.773 41.9671 133.323 43.5961 128.699 42.9624C124.399 42.3728 122.053 39.5497 122.049 35.3743C122.049 31.442 122.049 27.5079 122.049 23.4262L122.048 23.4253Z" fill="white"/>
<path d="M120.457 47.3309H125.339C125.753 47.7728 125.605 48.2413 125.605 48.6673C125.617 51.9429 125.605 55.2185 125.616 58.4942C125.633 59.4376 125.521 60.3789 125.281 61.2916C124.601 63.7364 122.963 65.2955 120.549 66.0009C118.673 66.5611 116.681 66.6123 114.779 66.1494C111.401 65.3353 109.319 63.0443 109.21 59.5866C109.087 55.649 109.19 51.7052 109.202 47.764C109.202 47.665 109.284 47.566 109.379 47.3583C110.914 47.1541 112.506 47.2805 114.045 47.2902C114.507 47.6977 114.328 48.1741 114.33 48.5895C114.345 52.0313 114.316 55.474 114.348 58.9158C114.366 60.9363 115.249 61.9474 116.999 62.1092C119.033 62.2975 120.335 61.2571 120.406 59.1739C120.495 56.4569 120.448 53.7345 120.456 51.0149C120.456 49.8093 120.456 48.6028 120.456 47.3318L120.457 47.3309Z" fill="white"/>
<path d="M166.182 53.8073C165.33 52.5778 164.263 51.8849 162.87 51.6418C160.852 51.2882 159.046 52.1058 158.147 53.9027C157.507 55.1509 157.316 56.5811 157.605 57.9535C157.988 59.7893 158.892 61.3272 160.863 61.7789C162.896 62.2438 164.747 61.8938 166.049 60.0465C166.174 59.8697 166.314 59.6983 166.541 59.4013C167.18 59.8052 167.823 60.2074 168.462 60.6166C169.065 61.0029 169.666 61.3953 170.251 61.7745C168.998 65.0324 165.261 66.8691 160.969 66.3962C156.285 65.8801 152.878 62.5001 152.307 57.7051C152.068 55.6209 152.525 53.5164 153.605 51.718C154.685 49.9196 156.329 48.5279 158.28 47.7589C161.905 46.3227 167.582 47.1606 169.909 51.0956C169.49 51.7355 168.749 52.0236 168.141 52.462C167.555 52.8836 166.952 53.2814 166.184 53.8082L166.182 53.8073Z" fill="white"/>
<path d="M141.535 49.7449L138.549 52.5733C137.43 51.6169 136.198 51.0636 134.711 51.4198C134.181 51.5471 133.815 51.8432 133.739 52.416C133.663 52.9887 133.932 53.3803 134.42 53.6286C134.672 53.7423 134.931 53.8386 135.197 53.9168C135.72 54.0935 136.25 54.2579 136.767 54.4533C137.597 54.7653 138.441 55.0499 139.242 55.4317C141.834 56.6744 142.778 58.4369 142.477 61.3537C142.223 63.8135 140.682 65.5556 138.075 66.1133C134.064 66.9662 130.483 66.2591 127.53 63.0312C128.669 61.853 129.971 61.0523 131.229 60.1242C132.412 61.45 133.739 62.3745 135.599 62.1332C135.987 62.0828 136.368 62.0546 136.72 61.861C137.661 61.343 137.738 60.3584 136.852 59.73C136.4 59.41 135.861 59.2545 135.332 59.0768C134.231 58.7082 133.112 58.36 132.069 57.8615C129.555 56.6594 128.505 54.6955 128.771 51.9228C128.982 49.7352 130.516 48.0735 133.014 47.3664C135.569 46.6434 139.701 47.149 141.533 49.744L141.535 49.7449Z" fill="white"/>
<path d="M153.837 23.4748V28.253C152.681 28.5818 151.498 28.2229 150.249 28.5181V42.6963H144.366V28.6357C143.088 28.1142 141.832 28.6357 140.596 28.2503V23.6445C141.817 23.313 149.641 23.2025 153.836 23.4748H153.837Z" fill="white"/>
<path d="M149.909 66.4547H144.902V47.5399C146.512 47.3428 148.16 47.4948 149.909 47.4462V66.4547Z" fill="white"/>
<path d="M80.623 23.4463H87.0979L91.0244 30.3458C92.3954 27.9072 93.6506 25.6754 94.8969 23.4569H101.107C100.527 24.4831 100.021 25.3952 99.4996 26.2977C97.8608 29.126 96.2432 31.9721 94.5566 34.7749C94.1224 35.4808 93.907 36.2995 93.9379 37.1277C93.9706 38.9494 93.9476 40.7728 93.9476 42.689H87.981C87.981 40.8285 87.981 39.0095 87.981 37.1905C87.981 36.5815 87.9668 36.0043 87.6274 35.4333C85.3627 31.6203 83.1326 27.7879 80.8847 23.9651C80.8361 23.882 80.7141 23.8405 80.6266 23.7804V23.4472L80.623 23.4463Z" fill="white"/>
<path d="M147.219 13.7788C148.161 13.7719 149.07 14.1302 149.754 14.7784C149.758 14.782 149.762 14.7858 149.765 14.7899C151.151 16.1351 151.179 18.2096 149.858 19.5434C148.45 20.9655 146.026 20.9363 144.637 19.4806C143.316 18.0973 143.441 15.893 144.878 14.5804L144.887 14.5725C145.477 14.0532 146.239 13.7699 147.025 13.777H147.219V13.7788Z" fill="white"/>
<path d="M109.837 23.0775C113.79 23.1712 116.946 24.7737 118.968 28.2164C121.509 32.5473 120.255 38.0141 116.166 40.9441C111.886 44.0138 105.881 43.555 102.251 39.8834C96.9781 34.5466 99.3903 25.6576 106.702 23.5036C107.719 23.2039 108.759 23.0077 109.837 23.0784V23.0775ZM109.826 37.7798C112.279 37.7798 114.358 35.5551 114.334 32.9495C114.309 30.4207 112.278 28.2332 109.903 28.1766C107.487 28.1191 105.338 30.3571 105.314 32.9565C105.289 35.556 107.369 37.7745 109.829 37.7789L109.826 37.7798Z" fill="white"/>
<path d="M88.0469 66.3292V47.577H93.2409L97.1983 52.9686L101.11 47.5381H105.808C106.17 48.7852 106.305 62.0627 105.999 66.3645C104.424 66.5413 102.836 66.4582 101.107 66.4096V54.6037L100.847 54.5154L97.2858 59.5879C95.8088 57.9969 94.8223 56.2062 93.3514 54.4791V66.323H88.0478L88.0469 66.3292Z" fill="white"/>
<path d="M155.934 23.4491H161.401V31.6753C162.918 31.982 164.332 31.7743 165.871 31.8291V23.5207H171.47V42.6812H165.92V37.0395H161.537V42.66H155.934V23.4482V23.4491Z" fill="white"/>
<path d="M122.048 23.4253H127.55C127.919 23.8964 127.748 24.4152 127.751 24.8943C127.768 28.0594 127.759 31.2254 127.761 34.3915C127.761 34.8334 127.738 35.2851 127.796 35.7226C127.999 37.2437 128.892 38.0392 130.36 38.0463C131.827 38.0533 132.746 37.2861 132.844 35.7102C132.957 33.8841 132.908 32.0483 132.915 30.2161C132.924 28.0064 132.915 25.7914 132.915 23.4872H138.739V29.6963C138.739 31.3624 138.733 33.0285 138.739 34.6946C138.773 41.9671 133.323 43.5961 128.699 42.9624C124.399 42.3728 122.053 39.5497 122.049 35.3743C122.049 31.442 122.049 27.5079 122.049 23.4262L122.048 23.4253Z" fill="white"/>
<path d="M120.457 47.3309H125.339C125.753 47.7728 125.605 48.2413 125.605 48.6673C125.617 51.9429 125.605 55.2185 125.616 58.4942C125.633 59.4376 125.521 60.3789 125.281 61.2916C124.601 63.7364 122.963 65.2955 120.549 66.0009C118.673 66.5611 116.681 66.6123 114.779 66.1494C111.401 65.3353 109.319 63.0443 109.21 59.5866C109.087 55.649 109.19 51.7052 109.202 47.764C109.202 47.665 109.284 47.566 109.379 47.3583C110.914 47.1541 112.506 47.2805 114.045 47.2902C114.507 47.6977 114.328 48.1741 114.33 48.5895C114.345 52.0313 114.316 55.474 114.348 58.9158C114.366 60.9363 115.249 61.9474 116.999 62.1092C119.033 62.2975 120.335 61.2571 120.406 59.1739C120.495 56.4569 120.448 53.7345 120.456 51.0149C120.456 49.8093 120.456 48.6028 120.456 47.3318L120.457 47.3309Z" fill="white"/>
<path d="M166.182 53.8073C165.33 52.5778 164.263 51.8849 162.87 51.6418C160.852 51.2882 159.046 52.1058 158.147 53.9027C157.507 55.1509 157.316 56.5811 157.605 57.9535C157.988 59.7893 158.892 61.3272 160.863 61.7789C162.896 62.2438 164.747 61.8938 166.049 60.0465C166.174 59.8697 166.314 59.6983 166.541 59.4013C167.18 59.8052 167.823 60.2074 168.462 60.6166C169.065 61.0029 169.666 61.3953 170.251 61.7745C168.998 65.0324 165.261 66.8691 160.969 66.3962C156.285 65.8801 152.878 62.5001 152.307 57.7051C152.068 55.6209 152.525 53.5164 153.605 51.718C154.685 49.9196 156.329 48.5279 158.28 47.7589C161.905 46.3227 167.582 47.1606 169.909 51.0956C169.49 51.7355 168.749 52.0236 168.141 52.462C167.555 52.8836 166.952 53.2814 166.184 53.8082L166.182 53.8073Z" fill="white"/>
<path d="M141.535 49.7449L138.549 52.5733C137.43 51.6169 136.198 51.0636 134.711 51.4198C134.181 51.5471 133.815 51.8432 133.739 52.416C133.663 52.9887 133.932 53.3803 134.42 53.6286C134.672 53.7423 134.931 53.8386 135.197 53.9168C135.72 54.0935 136.25 54.2579 136.767 54.4533C137.597 54.7653 138.441 55.0499 139.242 55.4317C141.834 56.6744 142.778 58.4369 142.477 61.3537C142.223 63.8135 140.682 65.5556 138.075 66.1133C134.064 66.9662 130.483 66.2591 127.53 63.0312C128.669 61.853 129.971 61.0523 131.229 60.1242C132.412 61.45 133.739 62.3745 135.599 62.1332C135.987 62.0828 136.368 62.0546 136.72 61.861C137.661 61.343 137.738 60.3584 136.852 59.73C136.4 59.41 135.861 59.2545 135.332 59.0768C134.231 58.7082 133.112 58.36 132.069 57.8615C129.555 56.6594 128.505 54.6955 128.771 51.9228C128.982 49.7352 130.516 48.0735 133.014 47.3664C135.569 46.6434 139.701 47.149 141.533 49.744L141.535 49.7449Z" fill="white"/>
<path d="M153.837 23.4748V28.253C152.681 28.5818 151.498 28.2229 150.249 28.5181V42.6963H144.366V28.6357C143.088 28.1142 141.832 28.6357 140.596 28.2503V23.6445C141.817 23.313 149.641 23.2025 153.836 23.4748H153.837Z" fill="white"/>
<path d="M149.909 66.4547H144.902V47.5399C146.512 47.3428 148.16 47.4948 149.909 47.4462V66.4547Z" fill="white"/>
<path d="M93.9433 43.2196H87.9766C87.836 43.2196 87.7011 43.1637 87.6016 43.0643C87.5022 42.9648 87.4463 42.8299 87.4463 42.6893V40.8331C87.4463 39.6107 87.4463 38.4007 87.4463 37.1916C87.4463 36.5959 87.426 36.1407 87.1678 35.7049C85.6651 33.1788 84.158 30.6023 82.6978 28.1107C81.9535 26.8415 81.2089 25.5722 80.464 24.303L80.4561 24.2986C80.4101 24.2743 80.3656 24.2474 80.3226 24.2181C80.2518 24.1694 80.1938 24.1042 80.1538 24.0282C80.1138 23.9521 80.0928 23.8675 80.0928 23.7815V23.4483C80.0928 23.3076 80.1487 23.1728 80.2481 23.0733C80.3476 22.9738 80.4825 22.918 80.6231 22.918H87.098C87.1915 22.9176 87.2834 22.9419 87.3644 22.9885C87.4454 23.0351 87.5127 23.1022 87.5594 23.1831C88.6131 25.0393 89.6924 26.9325 90.8557 28.9769L91.0218 29.2677L91.6839 28.0904C92.6324 26.404 93.5402 24.7962 94.4347 23.1964C94.4809 23.1143 94.548 23.046 94.6292 22.9985C94.7105 22.951 94.8029 22.9259 94.897 22.9259H101.107C101.199 22.926 101.29 22.9503 101.371 22.9965C101.451 23.0427 101.518 23.1091 101.564 23.1891C101.611 23.2691 101.636 23.3599 101.637 23.4525C101.637 23.5452 101.614 23.6363 101.568 23.717L101.025 24.6813C100.659 25.3336 100.313 25.9496 99.9594 26.5622C99.574 27.228 99.1894 27.8939 98.8058 28.5597C97.5763 30.6934 96.3043 32.8995 95.0111 35.0473C94.6268 35.6679 94.4363 36.3889 94.4639 37.1182C94.4869 38.4078 94.4825 39.6744 94.4772 41.0143C94.4772 41.5667 94.4772 42.1236 94.4772 42.6893C94.4772 42.7592 94.4633 42.8285 94.4364 42.893C94.4096 42.9576 94.3702 43.0162 94.3206 43.0655C94.2709 43.1148 94.2121 43.1538 94.1473 43.1802C94.0825 43.2067 94.0132 43.22 93.9433 43.2196ZM88.507 42.1589H93.4138C93.4138 41.7727 93.4138 41.3909 93.4138 41.0099C93.4191 39.6753 93.4235 38.414 93.4005 37.1368C93.3699 36.2084 93.613 35.2915 94.0997 34.5002C95.3876 32.3612 96.657 30.1595 97.8847 28.0294C98.2684 27.363 98.6514 26.6968 99.0339 26.031C99.3874 25.4246 99.7286 24.8112 100.095 24.1616L100.193 23.9848H95.2011C94.3525 25.4962 93.4969 27.0165 92.6023 28.6083L91.4806 30.6032C91.4346 30.685 91.3678 30.7531 91.2869 30.8006C91.206 30.8482 91.1139 30.8734 91.0201 30.8737C90.9268 30.8739 90.835 30.8495 90.7542 30.8029C90.6733 30.7564 90.6062 30.6893 90.5595 30.6085L89.9293 29.5019C88.8217 27.5574 87.791 25.7455 86.7851 23.9768H81.4991C82.2027 25.1748 82.9058 26.3736 83.6082 27.5733C85.0676 30.0641 86.5765 32.6397 88.0756 35.1631C88.5026 35.8826 88.5026 36.6082 88.5026 37.1907C88.5026 38.4007 88.5026 39.6099 88.5026 40.8314L88.507 42.1589Z" fill="#1D1D1B"/>
<path d="M147.286 21.1217H147.247C146.688 21.1187 146.136 21.0043 145.622 20.7854C145.108 20.5664 144.642 20.2471 144.253 19.8463C143.897 19.4744 143.62 19.0348 143.438 18.5536C143.256 18.0724 143.172 17.5594 143.192 17.0453C143.211 16.5046 143.338 15.9732 143.565 15.4824C143.793 14.9917 144.117 14.5517 144.518 14.1886L144.526 14.1816L144.531 14.1771C145.219 13.5707 146.106 13.2398 147.023 13.2482H147.217C148.297 13.2395 149.338 13.6516 150.119 14.3972L150.144 14.4211C150.519 14.7798 150.82 15.2095 151.028 15.6854C151.236 16.1612 151.347 16.6737 151.356 17.1929C151.36 17.699 151.262 18.2008 151.07 18.6688C150.877 19.1368 150.592 19.5615 150.233 19.9179C149.449 20.694 148.389 21.127 147.286 21.1217ZM145.234 14.9726C144.937 15.2403 144.697 15.565 144.529 15.9273C144.36 16.2896 144.265 16.6821 144.251 17.0815C144.236 17.4547 144.297 17.827 144.429 18.1763C144.561 18.5255 144.762 18.8446 145.02 19.1144C145.312 19.4128 145.659 19.6501 146.043 19.8126C146.427 19.9752 146.84 20.0596 147.257 20.0611H147.286C147.692 20.0641 148.096 19.987 148.472 19.8341C148.849 19.6813 149.192 19.4556 149.482 19.1701C149.742 18.9128 149.948 18.6062 150.088 18.2682C150.228 17.9302 150.299 17.5676 150.297 17.2018C150.29 16.82 150.206 16.4435 150.052 16.0944C149.897 15.7454 149.674 15.4307 149.396 15.1689C149.392 15.1646 149.389 15.1607 149.384 15.1574C148.801 14.603 148.024 14.298 147.219 14.3071H147.025C146.37 14.299 145.735 14.5331 145.241 14.9647L145.234 14.9726Z" fill="#1D1D1B"/>
<path d="M109.804 43.5127C106.887 43.5127 104 42.4088 101.873 40.2566C99.2997 37.6518 98.3052 34.0005 99.2113 30.4889C100.143 26.8757 102.888 24.0747 106.548 22.9946C107.791 22.6287 108.837 22.4864 109.835 22.5473H109.845C114.155 22.6499 117.377 24.4662 119.421 27.9478C122.086 32.4873 120.817 38.2608 116.471 41.3826C114.525 42.7713 112.194 43.5161 109.804 43.5127ZM109.391 23.5947C108.629 23.5947 107.81 23.73 106.852 24.0128C103.549 24.9851 101.076 27.5059 100.238 30.7541C99.4261 33.9015 100.32 37.1745 102.625 39.5106C106.084 43.0116 111.771 43.4438 115.853 40.5155C119.751 37.7199 120.892 32.5483 118.505 28.4852C116.664 25.3501 113.751 23.7123 109.849 23.6089H109.796C109.664 23.5994 109.529 23.5947 109.391 23.5947ZM109.833 38.3103H109.825C108.54 38.3103 107.306 37.7747 106.351 36.8077C105.337 35.7805 104.773 34.3934 104.78 32.9505C104.792 32.223 104.948 31.5051 105.237 30.8378C105.527 30.1704 105.946 29.5668 106.469 29.0615C107.442 28.121 108.667 27.6199 109.917 27.6473C112.569 27.71 114.838 30.1354 114.867 32.9443C114.871 33.6638 114.733 34.3771 114.461 35.0433C114.189 35.7095 113.789 36.3154 113.282 36.8263C112.331 37.7826 111.106 38.3103 109.833 38.3103ZM109.809 28.707C108.874 28.707 107.953 29.1012 107.207 29.8225C106.784 30.2304 106.445 30.7178 106.211 31.2566C105.976 31.7955 105.851 32.3753 105.841 32.9629C105.835 34.1229 106.29 35.2378 107.105 36.0635C107.86 36.8263 108.826 37.2479 109.827 37.2496H109.833C110.822 37.2496 111.777 36.8333 112.529 36.0776C112.936 35.6662 113.257 35.1786 113.475 34.6428C113.694 34.107 113.804 33.5335 113.801 32.9549C113.778 30.7019 111.986 28.7565 109.888 28.7079L109.809 28.707Z" fill="#1D1D1B"/>
<path d="M103.815 66.9991C103.151 66.9991 102.477 66.9779 101.782 66.9558L101.089 66.9355C100.951 66.9315 100.82 66.8739 100.724 66.7749C100.628 66.6759 100.574 66.5432 100.574 66.4051V55.8296L97.717 59.8954C97.6716 59.96 97.6124 60.0137 97.5436 60.0525C97.4748 60.0913 97.3982 60.1142 97.3195 60.1196C97.2407 60.125 97.1617 60.1128 97.0882 60.0838C97.0148 60.0548 96.9488 60.0098 96.8949 59.952C96.0658 59.0611 95.379 58.0959 94.7151 57.1616C94.4438 56.7807 94.168 56.3927 93.8789 56.0055V66.3291C93.8789 66.4698 93.8231 66.6047 93.7236 66.7041C93.6241 66.8036 93.4892 66.8594 93.3486 66.8594H88.0626C87.9869 66.8624 87.9115 66.8488 87.8416 66.8197C87.7446 66.7796 87.6617 66.7117 87.6034 66.6246C87.545 66.5374 87.5138 66.4349 87.5137 66.33V47.5769C87.5137 47.4363 87.5696 47.3014 87.669 47.2019C87.7685 47.1025 87.9034 47.0466 88.044 47.0466H93.2381C93.3214 47.0466 93.4035 47.0662 93.4779 47.1038C93.5522 47.1414 93.6166 47.196 93.6659 47.2632C94.7744 48.7737 95.9412 50.362 97.1911 52.0635L99.1667 49.3235L100.676 47.2269C100.726 47.1587 100.79 47.1032 100.865 47.065C100.94 47.0267 101.023 47.0068 101.107 47.0068H105.805C105.92 47.0069 106.032 47.0442 106.124 47.1133C106.215 47.1823 106.282 47.2792 106.314 47.3896C106.723 48.7949 106.808 62.4153 106.525 66.4007C106.517 66.5241 106.465 66.6406 106.379 66.7298C106.293 66.8191 106.179 66.8756 106.056 66.8895C105.312 66.9685 104.564 67.0051 103.815 66.9991ZM101.637 65.8907L101.814 65.896C103.093 65.9367 104.309 65.9747 105.494 65.8766C105.759 61.3123 105.624 50.423 105.357 48.0648H101.379L100.033 49.9404L97.6286 53.2752C97.5797 53.343 97.5154 53.3983 97.4411 53.4366C97.3667 53.4748 97.2844 53.495 97.2008 53.4953C97.1175 53.4954 97.0353 53.4758 96.961 53.4382C96.8867 53.4005 96.8223 53.3459 96.773 53.2788L92.972 48.1073H88.5771V65.7979H92.82V54.4844C92.8199 54.3758 92.8532 54.2699 92.9153 54.1809C92.9774 54.0918 93.0653 54.024 93.1672 53.9865C93.269 53.949 93.38 53.9437 93.4849 53.9712C93.5899 53.9988 93.684 54.0579 93.7543 54.1406C94.4385 54.944 95.0192 55.7598 95.5805 56.55C96.125 57.3145 96.6413 58.0446 97.2361 58.7402L100.412 54.2157C100.478 54.1221 100.572 54.0523 100.681 54.0166C100.789 53.9809 100.907 53.9813 101.015 54.0177L101.275 54.1061C101.38 54.1415 101.472 54.209 101.537 54.2993C101.602 54.3895 101.636 54.4979 101.636 54.609L101.637 65.8907Z" fill="#1D1D1B"/>
<path d="M171.469 43.2116H165.919C165.779 43.2116 165.644 43.1558 165.544 43.0563C165.445 42.9568 165.389 42.822 165.389 42.6813V37.5699H162.066V42.6601C162.066 42.8007 162.01 42.9356 161.911 43.0351C161.812 43.1345 161.677 43.1904 161.536 43.1904H155.933C155.792 43.1904 155.657 43.1345 155.558 43.0351C155.458 42.9356 155.402 42.8007 155.402 42.6601V23.4483C155.402 23.3076 155.458 23.1728 155.558 23.0733C155.657 22.9738 155.792 22.918 155.933 22.918H161.4C161.541 22.918 161.675 22.9738 161.775 23.0733C161.874 23.1728 161.93 23.3076 161.93 23.4483V31.2263C162.726 31.3386 163.506 31.32 164.326 31.3015C164.656 31.2944 164.995 31.2873 165.34 31.2873V23.5163C165.34 23.3757 165.395 23.2408 165.495 23.1414C165.594 23.0419 165.729 22.986 165.87 22.986H171.469C171.61 22.986 171.744 23.0419 171.844 23.1414C171.943 23.2408 171.999 23.3757 171.999 23.5163V42.6813C171.999 42.822 171.943 42.9568 171.844 43.0563C171.744 43.1558 171.61 43.2116 171.469 43.2116ZM166.45 42.151H170.939V24.0467H166.4V31.8247C166.4 31.896 166.386 31.9665 166.358 32.0321C166.33 32.0976 166.29 32.1569 166.238 32.2064C166.187 32.2559 166.127 32.2946 166.06 32.3201C165.994 32.3457 165.923 32.3575 165.851 32.355C165.344 32.3365 164.838 32.348 164.349 32.3595C163.368 32.3816 162.355 32.4054 161.294 32.1906C161.174 32.1664 161.066 32.1014 160.988 32.0066C160.911 31.9119 160.869 31.7933 160.869 31.6709V23.9795H156.463V42.1298H161.006V37.0396C161.006 36.8989 161.062 36.764 161.161 36.6646C161.26 36.5651 161.395 36.5092 161.536 36.5092H165.919C166.06 36.5092 166.195 36.5651 166.295 36.6646C166.394 36.764 166.45 36.8989 166.45 37.0396V42.151Z" fill="#1D1D1B"/>
<path d="M130.544 43.6231C129.903 43.6218 129.262 43.5763 128.626 43.487C126.372 43.1786 124.601 42.2938 123.361 40.8593C122.158 39.4663 121.52 37.5695 121.518 35.3749C121.518 32.7639 121.518 30.153 121.518 27.4978C121.518 26.1535 121.518 24.7985 121.518 23.4258C121.518 23.2852 121.573 23.1503 121.673 23.0508C121.772 22.9514 121.907 22.8955 122.048 22.8955H127.55C127.63 22.8956 127.709 22.9139 127.782 22.9491C127.854 22.9843 127.917 23.0355 127.967 23.0988C128.375 23.6194 128.331 24.178 128.298 24.5855C128.289 24.6951 128.281 24.7994 128.281 24.8922C128.293 27.1292 128.292 29.3999 128.291 31.6043C128.291 32.5329 128.291 33.4622 128.291 34.392C128.291 34.4919 128.291 34.5918 128.291 34.6925C128.279 35.0131 128.29 35.3342 128.324 35.6533C128.49 36.9013 129.157 37.5094 130.357 37.5165H130.373C131.601 37.5165 132.234 36.9155 132.31 35.678C132.392 34.339 132.387 32.9637 132.381 31.6326C132.381 31.1597 132.381 30.6868 132.381 30.2184C132.387 28.6919 132.381 27.1946 132.381 25.609C132.381 24.9107 132.381 24.2036 132.381 23.4877C132.381 23.347 132.437 23.2122 132.537 23.1127C132.636 23.0132 132.771 22.9574 132.912 22.9574H138.736C138.877 22.9574 139.011 23.0132 139.111 23.1127C139.21 23.2122 139.266 23.347 139.266 23.4877V29.6969C139.266 30.2272 139.266 30.7575 139.266 31.2879C139.266 32.4033 139.266 33.5576 139.266 34.6908C139.28 37.7145 138.389 40.0346 136.614 41.5849C135.689 42.4043 133.758 43.6231 130.544 43.6231ZM122.578 23.9553C122.578 25.1479 122.578 26.3288 122.578 27.4978C122.578 30.1494 122.578 32.763 122.578 35.3731C122.578 37.3388 123.114 38.951 124.163 40.1663C125.229 41.3993 126.78 42.1639 128.77 42.437C131.667 42.8338 134.274 42.2337 135.921 40.7903C137.452 39.4495 138.22 37.3989 138.208 34.6969C138.204 33.5603 138.208 32.4051 138.208 31.2879C138.208 30.7575 138.208 30.2272 138.208 29.6969V24.0171H133.445C133.445 24.5475 133.445 25.0763 133.445 25.6037C133.445 27.1947 133.445 28.6893 133.445 30.2175C133.445 30.6877 133.445 31.1579 133.445 31.6317C133.451 32.9787 133.456 34.3717 133.372 35.7461C133.262 37.5474 132.17 38.5798 130.376 38.5798H130.352C128.602 38.5709 127.507 37.5828 127.268 35.7956C127.228 35.4262 127.214 35.0542 127.227 34.6828C127.227 34.5865 127.227 34.4901 127.227 34.3947C127.227 33.466 127.227 32.5365 127.227 31.606C127.227 29.4079 127.227 27.1345 127.217 24.9001C127.217 24.7622 127.227 24.635 127.238 24.5033C127.263 24.3225 127.261 24.1388 127.23 23.9588L122.578 23.9553Z" fill="#1D1D1B"/>
<path d="M117.383 66.993C116.463 66.992 115.548 66.882 114.655 66.6651C110.971 65.7812 108.793 63.2038 108.681 59.6038C108.593 56.7807 108.621 53.9126 108.647 51.139C108.658 50.0324 108.67 48.8878 108.673 47.7626C108.68 47.6 108.728 47.4418 108.813 47.303C108.838 47.2553 108.864 47.2058 108.89 47.1457C108.927 47.0622 108.984 46.9896 109.057 46.9348C109.13 46.88 109.216 46.8449 109.306 46.8328C110.485 46.6763 111.686 46.7073 112.849 46.7373C113.243 46.7471 113.651 46.7577 114.046 46.7603C114.174 46.7611 114.297 46.8082 114.393 46.8929C114.955 47.3896 114.905 47.9721 114.871 48.3583C114.863 48.4423 114.857 48.5219 114.857 48.5873C114.863 50.0342 114.857 51.504 114.857 52.928C114.857 54.8893 114.857 56.9177 114.871 58.9109C114.887 60.6441 115.537 61.4423 117.045 61.5819C117.929 61.6632 118.645 61.4838 119.122 61.064C119.599 60.6441 119.843 60.0095 119.873 59.1557C119.938 57.2404 119.932 55.2852 119.925 53.3938C119.925 52.6142 119.919 51.8028 119.925 51.0135C119.93 50.2242 119.925 49.4163 119.925 48.5988C119.925 48.1822 119.925 47.76 119.925 47.3322C119.925 47.1915 119.981 47.0566 120.08 46.9572C120.18 46.8577 120.314 46.8019 120.455 46.8019H125.338C125.411 46.8019 125.483 46.8168 125.55 46.8459C125.616 46.8749 125.676 46.9174 125.726 46.9707C126.21 47.4895 126.168 48.0578 126.145 48.4335C126.14 48.5219 126.134 48.597 126.134 48.6668C126.141 50.3082 126.141 51.9769 126.141 53.59C126.141 55.203 126.141 56.8603 126.146 58.4937C126.146 59.6003 126.035 60.5619 125.792 61.4352C125.085 63.9896 123.317 65.745 120.697 66.5113C119.621 66.8291 118.505 66.9913 117.383 66.993ZM109.734 47.8501C109.734 48.9523 109.719 50.0686 109.708 51.1496C109.682 53.9126 109.654 56.7693 109.742 59.5702C109.839 62.7018 111.672 64.8558 114.904 65.6345C116.716 66.0741 118.613 66.025 120.4 65.4922C122.684 64.8248 124.155 63.3638 124.771 61.1497C124.997 60.2846 125.103 59.3923 125.086 58.4981C125.08 56.8621 125.08 55.1995 125.081 53.5909C125.082 51.9822 125.081 50.3108 125.075 48.6712C125.075 48.5634 125.082 48.4609 125.088 48.361C125.104 48.133 125.11 47.988 125.061 47.8634H120.986C120.986 48.1109 120.986 48.3557 120.986 48.5996C120.986 49.419 120.986 50.2189 120.986 51.0188C120.986 51.8187 120.986 52.6142 120.986 53.392C120.993 55.2932 121 57.2589 120.934 59.1946C120.894 60.3348 120.511 61.2567 119.824 61.8612C119.122 62.4799 118.128 62.7451 116.949 62.639C114.888 62.449 113.833 61.1992 113.811 58.9268C113.793 56.9284 113.795 54.8972 113.797 52.9324C113.797 51.512 113.797 50.043 113.797 48.6014C113.797 48.4865 113.806 48.3796 113.815 48.2753C113.835 48.0437 113.838 47.9217 113.795 47.8271C113.47 47.8227 113.142 47.8148 112.823 47.8059C111.798 47.7715 110.743 47.7441 109.734 47.8501Z" fill="#1D1D1B"/>
<path d="M162.293 66.9997C161.832 66.9996 161.371 66.9739 160.913 66.9228C155.963 66.3774 152.38 62.7836 151.779 57.7676C151.537 55.6428 151.977 53.4961 153.036 51.638C154.165 49.643 155.948 48.0986 158.084 47.2655C162.062 45.6878 167.95 46.7414 170.364 50.8257C170.415 50.911 170.44 51.0088 170.438 51.1078C170.436 51.2068 170.406 51.3032 170.351 51.3861C169.991 51.9367 169.452 52.2638 168.977 52.5528C168.788 52.6668 168.611 52.7746 168.446 52.8922C168.044 53.1812 167.642 53.4543 167.177 53.7708C166.959 53.9184 166.728 54.0757 166.48 54.2454C166.37 54.3199 166.238 54.351 166.107 54.3327C165.976 54.3144 165.857 54.248 165.772 54.1464C165.755 54.1253 165.74 54.1031 165.726 54.0801C164.962 52.9903 164.024 52.3813 162.778 52.1639C160.954 51.8448 159.399 52.5837 158.624 54.1393C158.036 55.2804 157.86 56.5896 158.126 57.8454C158.534 59.797 159.468 60.9142 160.984 61.2616C163.048 61.7344 164.563 61.2368 165.617 59.7413C165.705 59.6158 165.794 59.4982 165.913 59.3489C165.974 59.2711 166.043 59.1827 166.122 59.0784C166.202 58.9726 166.32 58.901 166.451 58.8778C166.582 58.8545 166.717 58.8813 166.829 58.9529L167.399 59.3126C167.85 59.5966 168.301 59.8824 168.752 60.17C169.181 60.4449 169.609 60.7224 170.03 60.9964L170.543 61.3287C170.645 61.3949 170.721 61.4941 170.759 61.6098C170.797 61.7255 170.794 61.8507 170.75 61.9642C169.549 65.0755 166.244 66.9997 162.293 66.9997ZM161.947 47.6349C160.709 47.6349 159.506 47.8427 158.475 48.2536C156.564 48.9983 154.969 50.3795 153.958 52.1639C153.01 53.8245 152.616 55.744 152.832 57.6439C153.098 59.8721 154.012 61.8211 155.474 63.2821C156.935 64.7431 158.848 65.6305 161.03 65.8709C164.911 66.2987 168.286 64.7449 169.588 61.9819L169.448 61.8935C169.029 61.6213 168.603 61.3447 168.176 61.0707C167.727 60.7843 167.278 60.5 166.829 60.2177L166.665 60.1143C166.594 60.2027 166.536 60.2822 166.482 60.3591C165.17 62.2215 163.24 62.8755 160.744 62.3037C158.81 61.8617 157.579 60.436 157.086 58.0699C156.776 56.5805 156.982 55.0297 157.672 53.6735C158.658 51.7052 160.684 50.7294 162.961 51.1271C164.282 51.3387 165.474 52.0398 166.302 53.0911L166.582 52.901C167.041 52.589 167.438 52.3203 167.828 52.0393C168.026 51.8978 168.229 51.7741 168.426 51.6539C168.724 51.4892 169.003 51.2911 169.256 51.0635C168.235 49.545 166.545 48.4401 164.455 47.9363C163.634 47.7375 162.792 47.6363 161.947 47.6349Z" fill="#1D1D1B"/>
<path d="M135.088 66.9804C131.954 66.9804 129.335 65.7925 127.139 63.3893C127.048 63.2896 126.998 63.1589 127 63.0239C127.002 62.8889 127.055 62.7597 127.149 62.6627C128.045 61.7355 129.038 61.0329 130 60.3532C130.301 60.1401 130.612 59.9201 130.914 59.6973C131.02 59.6199 131.151 59.5847 131.282 59.5984C131.413 59.6121 131.533 59.6738 131.621 59.7716C132.933 61.2432 134.102 61.7921 135.527 61.6074L135.659 61.5906C135.969 61.5526 136.237 61.519 136.461 61.3961C136.752 61.2361 136.927 61.0169 136.939 60.796C136.951 60.575 136.811 60.354 136.542 60.1631C136.207 59.9254 135.788 59.7875 135.345 59.6416L135.16 59.5798L134.727 59.4357C133.767 59.1166 132.773 58.7878 131.837 58.3397C129.161 57.0607 127.948 54.8847 128.24 51.8724C128.473 49.4506 130.16 47.6219 132.869 46.8565C134.305 46.4499 136.052 46.4269 137.662 46.7937C138.988 47.096 140.809 47.7996 141.965 49.4383C142.035 49.5369 142.069 49.6563 142.061 49.7769C142.054 49.8974 142.006 50.0118 141.924 50.1012L141.896 50.1294L138.91 52.9578C138.815 53.0474 138.691 53.0988 138.56 53.1022C138.43 53.1056 138.303 53.0608 138.203 52.9764C137.054 51.9918 135.98 51.6612 134.834 51.9352C134.408 52.0377 134.304 52.2286 134.267 52.4832C134.238 52.713 134.267 52.9543 134.662 53.1558C134.824 53.232 134.992 53.2958 135.164 53.3467C135.234 53.3688 135.303 53.3918 135.372 53.4157C135.557 53.4793 135.744 53.5415 135.93 53.6022C136.267 53.7135 136.615 53.8284 136.957 53.9557L137.51 54.1608C138.158 54.3985 138.827 54.6442 139.469 54.9563C142.236 56.2821 143.325 58.2725 143.005 61.4085C142.724 64.1326 140.972 66.0364 138.185 66.6322C137.168 66.8568 136.13 66.9735 135.088 66.9804ZM128.274 63.0428C130.823 65.606 133.997 66.4421 137.962 65.5945C140.298 65.0951 141.713 63.5696 141.947 61.2989C142.226 58.6066 141.376 57.0457 139.011 55.9126C138.415 55.6271 137.773 55.3902 137.145 55.1604L136.584 54.9527C136.262 54.8307 135.925 54.7203 135.599 54.6124C135.408 54.5494 135.217 54.4854 135.026 54.4206L134.836 54.3579C134.612 54.2903 134.393 54.2055 134.182 54.1042C133.462 53.7374 133.121 53.1152 133.216 52.3515C133.283 51.8265 133.576 51.1494 134.588 50.9072C135.941 50.582 137.232 50.8984 138.52 51.8724L140.819 49.691C139.852 48.5782 138.466 48.0647 137.428 47.8278C136.007 47.5043 134.412 47.522 133.159 47.8765C130.894 48.5173 129.486 50.011 129.297 51.9732C129.049 54.5665 130.004 56.2856 132.297 57.3834C133.173 57.8014 134.133 58.1205 135.063 58.429L135.499 58.5739L135.676 58.634C136.174 58.7984 136.688 58.9681 137.153 59.2969C137.722 59.7 138.029 60.2692 137.996 60.8552C137.963 61.4412 137.589 61.9857 136.97 62.326C136.568 62.5469 136.153 62.5982 135.788 62.6433L135.662 62.6592C133.596 62.9243 132.179 61.8946 131.154 60.8305C130.97 60.9622 130.787 61.0956 130.606 61.2194C129.787 61.8027 129.001 62.3578 128.274 63.0428Z" fill="#1D1D1B"/>
<path d="M150.249 43.2264H144.366C144.225 43.2264 144.09 43.1705 143.991 43.071C143.891 42.9716 143.835 42.8367 143.835 42.696V29.0181C143.358 28.8962 142.863 28.9103 142.349 28.9253C141.73 28.943 141.097 28.9616 140.438 28.7565C140.33 28.7228 140.235 28.6555 140.168 28.5643C140.101 28.4732 140.065 28.3631 140.065 28.2501V23.6442C140.065 23.5278 140.104 23.4145 140.175 23.322C140.245 23.2296 140.345 23.1629 140.457 23.1325C141.748 22.7789 149.64 22.672 153.866 22.9451C154.002 22.9525 154.129 23.0117 154.223 23.1103C154.316 23.209 154.368 23.3397 154.368 23.4754V28.2527C154.368 28.3681 154.33 28.4803 154.26 28.5723C154.191 28.6643 154.093 28.7312 153.982 28.7627C153.312 28.9536 152.656 28.9395 152.019 28.9262C151.606 28.9079 151.193 28.9186 150.781 28.958V42.6934C150.782 42.7634 150.768 42.8328 150.742 42.8976C150.715 42.9623 150.676 43.0212 150.626 43.0707C150.577 43.1203 150.518 43.1595 150.453 43.1862C150.389 43.213 150.319 43.2266 150.249 43.2264ZM144.896 42.1657H149.719V28.5179C149.719 28.3982 149.76 28.282 149.834 28.1883C149.909 28.0946 150.013 28.0288 150.129 28.0017C150.802 27.8444 151.431 27.8576 152.041 27.8709C152.463 27.8918 152.887 27.8776 153.307 27.8285V23.9739C149.263 23.752 142.973 23.8484 141.126 24.087V27.8293C141.521 27.8773 141.92 27.8894 142.318 27.8656C143.003 27.8452 143.779 27.8232 144.566 28.1449C144.664 28.1847 144.747 28.2526 144.806 28.34C144.865 28.4273 144.896 28.5302 144.896 28.6354V42.1657Z" fill="#1D1D1B"/>
<path d="M149.909 66.9849H144.902C144.762 66.9849 144.627 66.929 144.527 66.8295C144.428 66.7301 144.372 66.5952 144.372 66.4545V47.5397C144.371 47.4096 144.418 47.2836 144.504 47.1858C144.59 47.088 144.709 47.0252 144.838 47.0094C145.892 46.8795 146.929 46.8945 148.028 46.9113C148.635 46.9201 149.266 46.929 149.894 46.9113C149.965 46.9098 150.035 46.9223 150.101 46.9481C150.167 46.9739 150.228 47.0124 150.279 47.0616C150.329 47.1109 150.37 47.17 150.398 47.2353C150.425 47.3006 150.439 47.3707 150.439 47.4416V66.4545C150.439 66.5952 150.384 66.7301 150.284 66.8295C150.185 66.929 150.05 66.9849 149.909 66.9849ZM145.433 65.9242H149.379V47.9817C148.915 47.9817 148.458 47.9817 148.013 47.9719C147.119 47.9596 146.266 47.9472 145.433 48.0153V65.9242Z" fill="#1D1D1B"/>
<path d="M39.9321 7.65873H37.3926L36.4839 11.9605H34L36.5404 0H41.7495C42.9511 0 43.8424 0.308471 44.4234 0.925412C45.0045 1.54235 45.1601 2.49723 44.8902 3.79004C44.5867 5.20423 44.0159 6.20212 43.178 6.7837C42.34 7.36529 41.258 7.65697 39.9321 7.65873ZM40.9045 2.07709H38.577L37.8301 5.59932H40.1593C40.7486 5.59932 41.2383 5.45584 41.6284 5.16887C42.0185 4.88191 42.2781 4.4276 42.4072 3.80594C42.5427 3.1837 42.4738 2.74 42.2003 2.47484C41.9269 2.20968 41.4955 2.07739 40.9062 2.07798L40.9045 2.07709Z" fill="black"/>
<path d="M51.8686 2.92143L51.3656 5.29108C51.2251 5.27517 51.1004 5.26368 50.9846 5.25838C50.8688 5.25308 50.7787 5.25042 50.708 5.25042C49.7781 5.25042 49.0883 5.5533 48.6387 6.15904C48.39 6.50022 48.1899 7.02494 48.0385 7.73321L47.1457 11.9608H44.8174L46.6913 3.11676H48.9012L48.5777 4.65823C49.0591 4.06898 49.4539 3.66594 49.7622 3.4491C50.2929 3.08166 50.9262 2.89141 51.5716 2.90552C51.6149 2.90552 51.652 2.90552 51.6812 2.90552C51.7104 2.90552 51.7714 2.91612 51.8686 2.92143Z" fill="black"/>
<path d="M59.8038 4.60167C60.0395 5.1261 60.1344 5.73449 60.0884 6.42686C60.0367 7.01783 59.9389 7.60385 59.7958 8.17957H53.7435C53.5861 9.06698 53.7335 9.68922 54.1855 10.0463C54.4548 10.2673 54.8142 10.3781 55.2639 10.3786C55.7142 10.3871 56.1543 10.2443 56.5138 9.97294C56.7295 9.79866 56.9184 9.59345 57.0742 9.36396H59.4352C59.2619 9.88898 58.8751 10.4219 58.2746 10.9629C57.3317 11.8232 56.1796 12.253 54.8184 12.2524C53.6934 12.2524 52.7776 11.8901 52.0711 11.1653C51.3645 10.4405 51.1848 9.26202 51.5319 7.6298C51.8566 6.09776 52.4936 4.92398 53.4429 4.10847C54.3477 3.30799 55.517 2.87122 56.725 2.88254C57.4605 2.88254 58.0948 3.02072 58.6281 3.29707C59.1632 3.57773 59.5801 4.04046 59.8038 4.60167ZM54.1236 6.65401H57.7186C57.8105 6.04355 57.7221 5.57982 57.4534 5.2628C57.1847 4.94579 56.8046 4.78757 56.3131 4.78816C55.8144 4.77438 55.3299 4.95469 54.9616 5.29108C54.5985 5.62637 54.3195 6.08068 54.1245 6.65401H54.1236Z" fill="black"/>
<path d="M62.9456 9.13681C62.9073 9.54928 62.9532 9.84154 63.0835 10.0136C63.2997 10.3224 63.7948 10.4765 64.5685 10.4759C64.9545 10.4888 65.339 10.4198 65.6964 10.2735C65.994 10.1385 66.1726 9.93553 66.2321 9.66448C66.286 9.40462 66.2188 9.20752 66.0288 9.07228C65.8387 8.93705 65.0847 8.70459 63.765 8.37403C62.8186 8.12536 62.1804 7.81454 61.8504 7.44154C61.5204 7.06855 61.4284 6.53823 61.5746 5.85058C61.7496 5.03388 62.2202 4.33209 62.9862 3.7452C63.7523 3.15831 64.7167 2.86369 65.8794 2.86133C66.9837 2.86133 67.8358 3.08171 68.4357 3.52246C69.0356 3.96322 69.2737 4.72453 69.15 5.80638H66.8323C66.86 5.51176 66.8249 5.27606 66.7271 5.09929C66.5379 4.78581 66.1375 4.62877 65.5258 4.62818C65.0231 4.62818 64.6486 4.70685 64.4023 4.86418C64.1557 5.02062 64.0116 5.20447 63.9683 5.41571C63.9094 5.68087 63.9824 5.87297 64.1875 5.992C64.3926 6.11102 65.1498 6.32463 66.4593 6.6328C67.3296 6.84906 67.9484 7.17638 68.3155 7.61478C68.6827 8.05318 68.7937 8.60766 68.6488 9.27823C68.459 10.1544 67.9802 10.8698 67.2124 11.4243C66.4445 11.9787 65.3788 12.256 64.0152 12.256C62.6244 12.256 61.66 11.9614 61.122 11.3721C60.584 10.7829 60.4098 10.0378 60.5996 9.13681H62.9456Z" fill="black"/>
<path d="M78.2905 4.60166C78.5262 5.12609 78.6208 5.73449 78.5743 6.42685C78.553 6.83284 78.4558 7.41708 78.2826 8.17956H72.2284C72.0723 9.06697 72.2196 9.68921 72.6704 10.0463C72.9409 10.2673 73.3007 10.378 73.7497 10.3786C74.2 10.387 74.6401 10.2441 74.9996 9.97294C75.2151 9.79861 75.4036 9.5934 75.5591 9.36395H77.921C77.7478 9.88897 77.3609 10.4219 76.7604 10.9629C75.8175 11.8232 74.6652 12.253 73.3033 12.2524C72.1778 12.2524 71.262 11.8901 70.556 11.1653C69.8501 10.4405 69.6703 9.26201 70.0168 7.6298C70.3409 6.09776 70.978 4.92398 71.9279 4.10846C72.8327 3.30813 74.002 2.87138 75.21 2.88253C75.9466 2.88253 76.581 3.02071 77.1131 3.29707C77.6487 3.57746 78.0664 4.04021 78.2905 4.60166ZM72.6103 6.65401H76.2044C76.2963 6.04355 76.2079 5.57981 75.9392 5.26279C75.6705 4.94578 75.2904 4.78757 74.7989 4.78816C74.3006 4.77442 73.8163 4.95473 73.4483 5.29108C73.0847 5.62636 72.8054 6.08067 72.6103 6.65401Z" fill="black"/>
<path d="M88.3201 6.00479L87.0543 11.9603H84.6853L85.8212 6.58107C85.9237 6.11498 85.9373 5.75789 85.8618 5.50982C85.7322 5.05551 85.3491 4.82836 84.7127 4.82836C83.9284 4.82836 83.3199 5.16099 82.8874 5.82625C82.636 6.24028 82.4626 6.6968 82.3756 7.17326L81.3617 11.9603H79.0537L80.9303 3.13221H83.1623L82.8865 4.42266C83.2807 3.96835 83.6322 3.64103 83.941 3.44068C84.5156 3.0771 85.1846 2.89081 85.8645 2.90506C86.7785 2.90506 87.475 3.14429 87.9541 3.62276C88.4332 4.10123 88.5552 4.89524 88.3201 6.00479Z" fill="black"/>
<path d="M89.7891 4.84449L90.1382 3.19695H91.3757L91.9061 0.730957H94.1893L93.659 3.19695H95.0954L94.7418 4.84449H93.3107L92.3127 9.51486C92.2367 9.87724 92.2367 10.1029 92.3127 10.1919C92.3852 10.2803 92.6575 10.3262 93.1277 10.3262C93.1984 10.3262 93.2727 10.3263 93.3514 10.3218C93.43 10.3174 93.5096 10.3156 93.59 10.3095L93.217 12.0418L92.1138 12.0825C91.0148 12.1196 90.3076 11.9302 89.9924 11.5142C89.792 11.249 89.7487 10.8407 89.8624 10.2891L91.0222 4.84449H89.7891Z" fill="black"/>
<path d="M103.219 4.60166C103.457 5.12609 103.552 5.73448 103.503 6.42685C103.451 7.01782 103.354 7.60384 103.211 8.17956H97.1574C97 9.06992 97.1459 9.69187 97.5949 10.0454C97.8654 10.2664 98.2252 10.3772 98.6742 10.3777C99.1245 10.3862 99.5646 10.2434 99.9241 9.97205C100.14 9.79754 100.328 9.59236 100.485 9.36307H102.846C102.673 9.88867 102.286 10.4219 101.685 10.9629C100.742 11.8232 99.59 12.253 98.2287 12.2524C97.1026 12.2524 96.1868 11.89 95.4814 11.1653C94.776 10.4405 94.5963 9.26201 94.9422 7.6298C95.2669 6.09776 95.9036 4.92398 96.8524 4.10846C97.7576 3.30815 98.9271 2.87141 100.135 2.88253C100.871 2.88253 101.505 3.02071 102.038 3.29707C102.575 3.5769 102.994 4.03972 103.219 4.60166ZM97.5383 6.654H101.133C101.225 6.04354 101.137 5.57981 100.868 5.26279C100.599 4.94578 100.219 4.78757 99.7279 4.78815C99.2292 4.77438 98.7447 4.95468 98.3763 5.29108C98.0127 5.62636 97.7334 6.08067 97.5383 6.654Z" fill="black"/>
<path d="M111.31 4.23531L112.203 0.0166016H114.548L112.016 11.9603H109.768L110.027 10.7353C109.585 11.2603 109.126 11.6416 108.652 11.879C108.137 12.125 107.571 12.2461 107.001 12.2326C105.968 12.2326 105.188 11.8148 104.66 10.9792C104.133 10.1437 104.007 9.07126 104.283 7.76195C104.607 6.2523 105.209 5.06497 106.088 4.19996C106.966 3.33494 107.988 2.90214 109.151 2.90155C109.687 2.90155 110.137 3.0194 110.502 3.2551C110.867 3.48982 111.149 3.83248 111.31 4.23531ZM110.644 7.66826C110.872 6.58641 110.764 5.81273 110.32 5.34722C110.179 5.20629 110.01 5.09609 109.824 5.02353C109.639 4.95097 109.44 4.91763 109.241 4.92562C108.925 4.91728 108.612 4.98212 108.325 5.11507C108.039 5.24801 107.787 5.44545 107.589 5.69193C107.144 6.24441 106.84 6.89783 106.706 7.5949C106.532 8.4116 106.554 9.06478 106.77 9.55444C106.986 10.0441 107.422 10.2889 108.077 10.2889C108.388 10.2942 108.697 10.2317 108.983 10.1056C109.268 9.97956 109.522 9.79299 109.728 9.55886C110.177 9.07214 110.482 8.44195 110.644 7.66826Z" fill="black"/>
<path d="M128.188 7.42432C127.894 8.79903 127.327 9.93775 126.488 10.8405C125.649 11.7432 124.647 12.1949 123.482 12.1954C122.752 12.1954 122.198 12.0481 121.819 11.7535C121.592 11.5803 121.37 11.2771 121.153 10.844L120.918 11.9559H118.653L121.185 0.0166016H123.489L122.589 4.26802C122.924 3.89238 123.319 3.57463 123.757 3.32758C124.269 3.04696 124.845 2.90697 125.429 2.92188C126.592 2.92188 127.413 3.34113 127.892 4.17963C128.371 5.01813 128.47 6.09969 128.188 7.42432ZM125.713 7.66826C125.849 7.04072 125.878 6.5213 125.802 6.11C125.655 5.33102 125.168 4.94152 124.341 4.94152C123.501 4.94152 122.844 5.32306 122.369 6.08614C122.12 6.49213 121.929 7.01656 121.793 7.65943C121.63 8.41661 121.664 9.04415 121.894 9.54207C122.124 10.04 122.582 10.2889 123.269 10.2889C123.865 10.2889 124.379 10.0482 124.812 9.56682C125.244 9.0854 125.545 8.45255 125.713 7.66826Z" fill="black"/>
<path d="M128.878 13.6568L129.17 13.6728C129.387 13.6837 129.604 13.6754 129.819 13.648C130.017 13.6261 130.208 13.5625 130.379 13.4615C130.536 13.3696 130.704 13.1778 130.882 12.8861C131.06 12.5944 131.144 12.4159 131.134 12.3505L129.852 3.1167H132.424L132.968 9.64054L136.181 3.1167H138.64L133.755 11.8131C132.812 13.4901 132.129 14.5301 131.706 14.9332C131.283 15.3362 130.559 15.5374 129.536 15.5368C129.33 15.5368 129.164 15.5368 129.041 15.5368C128.917 15.5368 128.732 15.5245 128.488 15.5086L128.878 13.6568Z" fill="black"/>
<path d="M67.8141 49.7149L70.2167 46.3562C70.3137 46.2194 70.3659 46.0559 70.3659 45.8882C70.3659 45.7205 70.3137 45.5569 70.2167 45.4202L67.9282 42.1861C67.8428 42.0653 67.7922 41.9234 67.7821 41.7759C67.7719 41.6283 67.8024 41.4808 67.8704 41.3495C67.9383 41.2181 68.0411 41.108 68.1674 41.0311C68.2938 40.9541 68.4388 40.9134 68.5867 40.9133H70.0187C70.1505 40.9131 70.2804 40.9452 70.3969 41.0068C70.5134 41.0684 70.613 41.1577 70.6869 41.2669L71.6593 42.7049C71.7333 42.8138 71.8328 42.9028 71.9491 42.9644C72.0654 43.026 72.195 43.0582 72.3266 43.0582C72.4583 43.0582 72.5879 43.026 72.7042 42.9644C72.8205 42.9028 72.92 42.8138 72.994 42.7049L73.9814 41.2598C74.0553 41.151 74.1546 41.062 74.2708 41.0004C74.3869 40.9387 74.5164 40.9064 74.6479 40.9063H76.0781C76.2263 40.9061 76.3716 40.9468 76.4982 41.0239C76.6247 41.101 76.7276 41.2114 76.7954 41.3431C76.8633 41.4748 76.8936 41.6227 76.8829 41.7705C76.8722 41.9182 76.821 42.0602 76.7349 42.1808L74.4366 45.4131C74.3384 45.5501 74.2856 45.7144 74.2856 45.8829C74.2856 46.0514 74.3384 46.2157 74.4366 46.3527L76.8498 49.7061C76.9365 49.8266 76.9882 49.9687 76.9993 50.1168C77.0104 50.2648 76.9805 50.4131 76.9128 50.5452C76.8451 50.6773 76.7422 50.7882 76.6155 50.8656C76.4888 50.9431 76.3433 50.9841 76.1948 50.9841H74.7319C74.6004 50.984 74.4709 50.9517 74.3547 50.89C74.2386 50.8284 74.1392 50.7394 74.0654 50.6306L72.994 49.0626C72.92 48.9538 72.8205 48.8647 72.7042 48.8031C72.5879 48.7416 72.4583 48.7094 72.3266 48.7094C72.195 48.7094 72.0654 48.7416 71.9491 48.8031C71.8328 48.8647 71.7333 48.9538 71.6593 49.0626L70.6038 50.6244C70.5297 50.7334 70.4301 50.8225 70.3136 50.8842C70.1971 50.9458 70.0674 50.978 69.9356 50.9779H68.4762C68.3278 50.9782 68.1822 50.9374 68.0555 50.8602C67.9288 50.7829 67.8259 50.6722 67.7581 50.5403C67.6902 50.4083 67.6602 50.2602 67.6712 50.1122C67.6821 49.9642 67.7338 49.8222 67.8203 49.7016L67.8141 49.7149Z" fill="black"/>
</g>
<defs>
<clipPath id="clip0_809_286">
<rect width="172" height="67" fill="white"/>
</clipPath>
</defs>
</svg>
